<?xml version="1.0" encoding="UTF-8"?>
<svg version="1.1" xmlns="http://www.w3.org/2000/svg" width="256" height="256">
<path d="M0 0 C1.18400391 -0.00676758 2.36800781 -0.01353516 3.58789062 -0.02050781 C11.04835982 0.13273199 16.86471899 1.424854 23.5625 4.6875 C25.0784375 5.3371875 25.0784375 5.3371875 26.625 6 C40.04198826 13.70763156 50.10163414 25.21682718 54.59375 40.10546875 C58.25309252 55.36967063 57.69182866 71.48525148 49.56640625 85.23828125 C47.08383972 89.19401912 44.3974674 92.97819687 41.5625 96.6875 C42.27535156 97.12320313 42.98820313 97.55890625 43.72265625 98.0078125 C49.40711936 101.54243155 54.71504969 105.05549192 59.5625 109.6875 C59.5625 110.3475 59.5625 111.0075 59.5625 111.6875 C60.8825 112.0175 62.2025 112.3475 63.5625 112.6875 C63.645 113.30625 63.7275 113.925 63.8125 114.5625 C64.06 115.26375 64.3075 115.965 64.5625 116.6875 C65.43068359 117.06648438 65.43068359 117.06648438 66.31640625 117.453125 C69.51187864 119.20924548 71.09267349 121.64565193 73.25 124.5625 C74.03761719 125.61179687 74.82523438 126.66109375 75.63671875 127.7421875 C77.26294924 130.22936354 78.15076187 131.79835448 78.5625 134.6875 C79.2225 134.6875 79.8825 134.6875 80.5625 134.6875 C87.96795099 149.37258122 96.1466294 165.67681234 91.83203125 182.54296875 C89.98442471 187.6483958 87.79934966 191.17401491 83.5625 194.6875 C82.758125 195.38875 81.95375 196.09 81.125 196.8125 C78.5625 198.6875 78.5625 198.6875 75.5625 200.125 C72.20014639 201.87622584 70.19923816 203.98484338 67.5625 206.6875 C65.57536706 208.18996637 63.69876149 209.43536354 61.5625 210.6875 C60.84578125 211.13996094 60.1290625 211.59242188 59.390625 212.05859375 C40.67386967 222.71828428 20.03026071 223.26855044 -0.9375 223.3125 C-2.01759338 223.31948914 -3.09768677 223.32647827 -4.21051025 223.3336792 C-17.5335272 223.38141384 -29.63414171 222.42192898 -42.4375 218.6875 C-44.16622063 218.24824087 -45.89526725 217.81025652 -47.625 217.375 C-57.92572345 214.1054871 -68.26675853 208.93954375 -75.4375 200.6875 C-75.4375 200.0275 -75.4375 199.3675 -75.4375 198.6875 C-76.30375 198.460625 -77.17 198.23375 -78.0625 198 C-83.97821229 195.69944522 -87.75467136 192.13383486 -90.69140625 186.6015625 C-91.96570591 183.33241678 -92.19269733 180.17593803 -92.4375 176.6875 C-93.45328125 176.69910156 -94.4690625 176.71070313 -95.515625 176.72265625 C-99.82360246 176.75947207 -104.12968716 176.73132208 -108.4375 176.6875 C-109.99017578 176.68169922 -109.99017578 176.68169922 -111.57421875 176.67578125 C-125.02707178 176.13166307 -139.49416206 170.70814537 -149.04296875 161.06640625 C-150.48448205 159.52014013 -150.48448205 159.52014013 -152.875 158.3125 C-156.69028415 155.89305151 -158.75605615 153.11853209 -160.6875 149.0625 C-163.76955465 135.19325409 -158.78495614 122.37746762 -151.4375 110.6875 C-149.55991004 107.90846764 -147.56483889 105.27936946 -145.4375 102.6875 C-144.54998047 101.59888672 -144.54998047 101.59888672 -143.64453125 100.48828125 C-140.73341294 97.03094031 -138.55516054 94.62130009 -134.4375 92.6875 C-133.06663085 91.39279025 -131.72409163 90.06599103 -130.4375 88.6875 C-131.44839528 86.09208515 -132.50204073 83.5507782 -133.69140625 81.03125 C-138.51560363 70.54762106 -140.06308006 59.81803078 -136.4375 48.6875 C-132.49704816 38.4232585 -125.87383095 30.26408574 -116.21484375 24.90625 C-104.13215008 19.6041397 -92.82543122 19.67381028 -80.4375 23.6875 C-70.80955693 27.87247913 -63.35945604 35.52247841 -58.4375 44.6875 C-56.42020173 41.66155259 -55.44456081 39.04560245 -54.25 35.625 C-50.6245449 26.03198164 -44.95065896 16.29064143 -35.4375 11.6875 C-34.88191406 11.08550781 -34.32632813 10.48351562 -33.75390625 9.86328125 C-24.53739719 1.20629045 -12.06007399 0.02845849 0 0 Z M-57.4375 71.6875 C-57.60765625 72.33976562 -57.7778125 72.99203125 -57.953125 73.6640625 C-59.44788098 79.05472504 -61.03956902 83.23503872 -64.4375 87.6875 C-63.756875 88.22375 -63.07625 88.76 -62.375 89.3125 C-60.15207454 91.10975888 -57.93982519 92.91292907 -55.75 94.75 C-55.16863281 95.23597656 -54.58726563 95.72195312 -53.98828125 96.22265625 C-52.4375 97.6875 -52.4375 97.6875 -50.4375 100.6875 C-47.06287285 100.14026317 -45.35515 99.6326 -42.4375 97.6875 C-43.51940214 95.34337869 -44.70272983 93.30860024 -46.1875 91.1875 C-50.10995775 85.41482633 -54.06930183 78.57794377 -55.4375 71.6875 C-56.0975 71.6875 -56.7575 71.6875 -57.4375 71.6875 Z " fill="#018D2F" transform="translate(162.4375,16.3125)"/>
<path d="M0 0 C8.85816313 6.13257448 14.43876223 12.62752446 19.25 22.25 C19.51104338 26.7950353 19.52124882 31.34416265 19.54516602 35.89575195 C19.55660085 37.40756656 19.57691546 38.91934356 19.60668945 40.4309082 C19.81320279 50.91924772 19.40456915 60.2210061 13.25 69.15234375 C12.59 69.82394531 11.93 70.49554688 11.25 71.1875 C10.59 71.87714844 9.93 72.56679687 9.25 73.27734375 C7.85856329 74.64975691 6.43943629 75.99442397 5 77.31640625 C2.91448451 79.18606011 2.91448451 79.18606011 3.25 82.25 C4.24 82.62125 4.24 82.62125 5.25 83 C11.10790985 85.44079577 15.79952392 87.64605923 20.25 92.25 C21.42755859 92.66572266 21.42755859 92.66572266 22.62890625 93.08984375 C25.77213943 94.48111089 26.95042631 95.95035565 29 98.6875 C31.88565177 102.46607043 34.82398929 106.16566902 37.875 109.8125 C48.20768597 122.45126987 48.20768597 122.45126987 49.25 129.25 C49.91 129.25 50.57 129.25 51.25 129.25 C52.23080991 131.6796205 53.20408963 134.1112803 54.16015625 136.55078125 C54.78928 138.10893363 55.44815426 139.65708679 56.18359375 141.16796875 C59.39695101 148.13280531 59.7148441 158.00139085 57.23046875 165.20703125 C56.90691406 165.88121094 56.58335937 166.55539063 56.25 167.25 C55.59 167.25 54.93 167.25 54.25 167.25 C53.92 168.24 53.59 169.23 53.25 170.25 C49.8583367 172.04004452 47.06355451 172.56779621 43.25 172.25 C41.46344932 170.46344932 41.77903253 167.75400505 41.5234375 165.328125 C39.61601545 148.5280129 37.29865124 132.154407 29.53515625 116.875 C28.25 114.25 28.25 114.25 28.25 111.25 C26.94703182 112.87370777 26.94703182 112.87370777 26.25 115.25 C27.16880927 118.39836606 27.16880927 118.39836606 28.8125 121.8125 C35.71073752 137.85667067 42.60162342 160.66817885 39.25 178.25 C36.39408314 181.71005312 33.35068422 183.46709382 29.25 185.25 C28.59 185.25 27.93 185.25 27.25 185.25 C27.25 185.91 27.25 186.57 27.25 187.25 C21.08291939 190.16309335 14.81926786 191.96438342 8.1875 193.4375 C7.4445166 193.60411133 6.7015332 193.77072266 5.93603516 193.94238281 C-21.44304902 199.80460044 -55.76962416 198.23375689 -80.26953125 183.76171875 C-83.28188386 181.55125335 -85.35045852 179.73438923 -86.33984375 176.05859375 C-86.45816926 173.03419371 -86.15249549 170.25349574 -85.75 167.25 C-85.61875732 166.16332031 -85.61875732 166.16332031 -85.48486328 165.0546875 C-82.25090441 138.62339635 -75.64458297 113.85817149 -56.75 94.25 C-55.93402344 93.3940625 -55.11804688 92.538125 -54.27734375 91.65625 C-48.18427986 85.39475995 -48.18427986 85.39475995 -44.75 84.25 C-44.42 85.24 -44.09 86.23 -43.75 87.25 C-43.42 86.92 -43.09 86.59 -42.75 86.25 C-40.859375 86.3359375 -40.859375 86.3359375 -38.5 86.625 C-37.27023438 86.77388672 -37.27023438 86.77388672 -36.015625 86.92578125 C-33.75 87.25 -33.75 87.25 -31.25 87.8125 C-24.63343512 88.97039885 -18.55266527 88.12498181 -12.05078125 86.69921875 C-8.41445049 85.98923906 -5.11192844 85.56903578 -1.75 87.25 C-2.08 86.59 -2.41 85.93 -2.75 85.25 C-4.77463255 84.59786708 -4.77463255 84.59786708 -6.75 84.25 C-4.77 82.765 -4.77 82.765 -2.75 81.25 C-3.63751953 81.66572266 -3.63751953 81.66572266 -4.54296875 82.08984375 C-5.72826172 82.63318359 -5.72826172 82.63318359 -6.9375 83.1875 C-7.71480469 83.54714844 -8.49210937 83.90679687 -9.29296875 84.27734375 C-20.15866535 88.57870854 -32.25991366 86.64246788 -42.75 82.25 C-50.3362493 78.29907201 -57.00414328 72.36878507 -61.75 65.25 C-63.73542649 58.52161024 -63.89972095 52.38462378 -63.72265625 45.38671875 C-63.74586789 42.72401241 -64.08539128 40.78346573 -64.75 38.25 C-63.75251156 34.8419145 -62.55484668 32.47050362 -59.75 30.25 C-59.09 30.25 -58.43 30.25 -57.75 30.25 C-57.811875 29.074375 -57.87375 27.89875 -57.9375 26.6875 C-57.96144173 22.21039699 -56.7379056 19.2258112 -54.75 15.25 C-58.71 18.715 -58.71 18.715 -62.75 22.25 C-63.08 21.26 -63.41 20.27 -63.75 19.25 C-60.64812688 13.49652567 -55.54661455 8.61522737 -50.75 4.25 C-50.17894531 3.71246094 -49.60789063 3.17492187 -49.01953125 2.62109375 C-35.25217558 -9.09143272 -15.26641892 -7.89763935 0 0 Z " fill="#A2DCEA" transform="translate(184.75,32.75)"/>
<path d="M0 0 C1.18400391 -0.00676758 2.36800781 -0.01353516 3.58789062 -0.02050781 C11.04835982 0.13273199 16.86471899 1.424854 23.5625 4.6875 C25.0784375 5.3371875 25.0784375 5.3371875 26.625 6 C40.04198826 13.70763156 50.10163414 25.21682718 54.59375 40.10546875 C58.25309252 55.36967063 57.69182866 71.48525148 49.56640625 85.23828125 C47.08383972 89.19401912 44.3974674 92.97819687 41.5625 96.6875 C42.27535156 97.12320313 42.98820313 97.55890625 43.72265625 98.0078125 C49.40711936 101.54243155 54.71504969 105.05549192 59.5625 109.6875 C59.5625 110.3475 59.5625 111.0075 59.5625 111.6875 C60.8825 112.0175 62.2025 112.3475 63.5625 112.6875 C63.645 113.30625 63.7275 113.925 63.8125 114.5625 C64.06 115.26375 64.3075 115.965 64.5625 116.6875 C65.43068359 117.06648438 65.43068359 117.06648438 66.31640625 117.453125 C69.51187864 119.20924548 71.09267349 121.64565193 73.25 124.5625 C74.03761719 125.61179687 74.82523438 126.66109375 75.63671875 127.7421875 C77.26294924 130.22936354 78.15076187 131.79835448 78.5625 134.6875 C79.2225 134.6875 79.8825 134.6875 80.5625 134.6875 C87.96795099 149.37258122 96.1466294 165.67681234 91.83203125 182.54296875 C89.98442471 187.6483958 87.79934966 191.17401491 83.5625 194.6875 C82.758125 195.38875 81.95375 196.09 81.125 196.8125 C78.5625 198.6875 78.5625 198.6875 75.5625 200.125 C72.20014639 201.87622584 70.19923816 203.98484338 67.5625 206.6875 C65.57536706 208.18996637 63.69876149 209.43536354 61.5625 210.6875 C60.84578125 211.13996094 60.1290625 211.59242188 59.390625 212.05859375 C40.67386967 222.71828428 20.03026071 223.26855044 -0.9375 223.3125 C-2.01759338 223.31948914 -3.09768677 223.32647827 -4.21051025 223.3336792 C-17.5335272 223.38141384 -29.63414171 222.42192898 -42.4375 218.6875 C-44.16622063 218.24824087 -45.89526725 217.81025652 -47.625 217.375 C-57.92572345 214.1054871 -68.26675853 208.93954375 -75.4375 200.6875 C-75.4375 200.0275 -75.4375 199.3675 -75.4375 198.6875 C-76.30375 198.460625 -77.17 198.23375 -78.0625 198 C-83.97821229 195.69944522 -87.75467136 192.13383486 -90.69140625 186.6015625 C-91.96570591 183.33241678 -92.19269733 180.17593803 -92.4375 176.6875 C-93.45328125 176.69910156 -94.4690625 176.71070313 -95.515625 176.72265625 C-99.82360246 176.75947207 -104.12968716 176.73132208 -108.4375 176.6875 C-109.99017578 176.68169922 -109.99017578 176.68169922 -111.57421875 176.67578125 C-125.02707178 176.13166307 -139.49416206 170.70814537 -149.04296875 161.06640625 C-150.48448205 159.52014013 -150.48448205 159.52014013 -152.875 158.3125 C-156.69028415 155.89305151 -158.75605615 153.11853209 -160.6875 149.0625 C-163.76955465 135.19325409 -158.78495614 122.37746762 -151.4375 110.6875 C-149.55991004 107.90846764 -147.56483889 105.27936946 -145.4375 102.6875 C-144.54998047 101.59888672 -144.54998047 101.59888672 -143.64453125 100.48828125 C-140.73341294 97.03094031 -138.55516054 94.62130009 -134.4375 92.6875 C-133.06663085 91.39279025 -131.72409163 90.06599103 -130.4375 88.6875 C-131.44839528 86.09208515 -132.50204073 83.5507782 -133.69140625 81.03125 C-138.51560363 70.54762106 -140.06308006 59.81803078 -136.4375 48.6875 C-132.49704816 38.4232585 -125.87383095 30.26408574 -116.21484375 24.90625 C-104.13215008 19.6041397 -92.82543122 19.67381028 -80.4375 23.6875 C-70.80955693 27.87247913 -63.35945604 35.52247841 -58.4375 44.6875 C-56.42020173 41.66155259 -55.44456081 39.04560245 -54.25 35.625 C-50.6245449 26.03198164 -44.95065896 16.29064143 -35.4375 11.6875 C-34.88191406 11.08550781 -34.32632813 10.48351562 -33.75390625 9.86328125 C-24.53739719 1.20629045 -12.06007399 0.02845849 0 0 Z M-35.4375 22.6875 C-36.06398438 23.32300781 -36.69046875 23.95851563 -37.3359375 24.61328125 C-47.49239547 35.24169358 -49.85699128 45.96185237 -49.6484375 60.19921875 C-49.11346103 76.16595469 -39.28837463 87.90896454 -28.4375 98.6875 C-29.283125 99.12320313 -30.12875 99.55890625 -31 100.0078125 C-36.97171817 103.14296454 -42.66489437 106.2914518 -47.94921875 110.5234375 C-49.4375 111.6875 -49.4375 111.6875 -51.4375 112.6875 C-51.664375 112.130625 -51.89125 111.57375 -52.125 111 C-56.78120685 102.79620697 -67.20751592 95.11902989 -75.4375 90.6875 C-76.4275 90.6875 -77.4175 90.6875 -78.4375 90.6875 C-78.4375 90.0275 -78.4375 89.3675 -78.4375 88.6875 C-77.85097656 88.44386719 -77.26445313 88.20023437 -76.66015625 87.94921875 C-74.04215926 86.46307986 -72.70668281 84.88077788 -70.875 82.5 C-70.29621094 81.76394531 -69.71742187 81.02789062 -69.12109375 80.26953125 C-65.22210785 74.28988002 -63.92432568 69.23287751 -64.0625 62.25 C-64.08098999 61.1196936 -64.08098999 61.1196936 -64.09985352 59.96655273 C-64.43397086 48.94068035 -68.49616326 43.38322838 -76.4375 35.6875 C-84.58441462 28.76820265 -94.34277821 28.91479313 -104.4375 29.6875 C-113.3391253 31.55035669 -120.12429252 37.03534682 -125.33203125 44.34765625 C-129.88358028 52.26756475 -130.70453113 59.69443696 -129.4375 68.6875 C-127.37317484 76.21314108 -123.9965291 82.23479113 -118.4375 87.6875 C-117.88320312 88.24308594 -117.32890625 88.79867187 -116.7578125 89.37109375 C-116.32210937 89.80550781 -115.88640625 90.23992187 -115.4375 90.6875 C-116.406875 91.038125 -117.37625 91.38875 -118.375 91.75 C-133.46750692 98.27895169 -144.40342893 113.04303034 -150.7109375 127.71484375 C-152.25099135 131.89617274 -152.65186132 135.65710733 -152.75 140.125 C-152.78738281 141.23746094 -152.82476562 142.34992188 -152.86328125 143.49609375 C-152.34424757 147.38646543 -151.23837539 148.98048111 -148.4375 151.6875 C-144.79567665 152.57805736 -144.79567665 152.57805736 -141.4375 152.6875 C-141.375625 153.80125 -141.375625 153.80125 -141.3125 154.9375 C-140.31381806 158.07621466 -139.15378845 159.0735472 -136.34765625 160.71875 C-119.49441362 169.2659978 -102.91992924 169.09400504 -84.4375 168.6875 C-84.45127686 169.29368164 -84.46505371 169.89986328 -84.47924805 170.52441406 C-84.48996338 171.32588867 -84.50067871 172.12736328 -84.51171875 172.953125 C-84.52549561 173.74493164 -84.53927246 174.53673828 -84.5534668 175.35253906 C-84.31181335 180.21816759 -82.14915031 183.6955026 -79.375 187.5625 C-75.25104808 190.54578437 -71.42383883 190.58099568 -66.4375 190.6875 C-66.540625 191.76 -66.64375 192.8325 -66.75 193.9375 C-66.81349821 197.67243644 -66.81349821 197.67243644 -64.625 199.75 C-63.573125 200.389375 -62.52125 201.02875 -61.4375 201.6875 C-60.72851562 202.14898437 -60.01953125 202.61046875 -59.2890625 203.0859375 C-53.6257271 206.51879004 -47.90059411 208.66385214 -41.5625 210.4375 C-40.85649658 210.63593506 -40.15049316 210.83437012 -39.4230957 211.03881836 C-27.29350684 214.23499033 -15.41071503 215.011941 -2.93554688 214.94824219 C-0.44115908 214.93751573 2.05250882 214.94820114 4.546875 214.9609375 C17.65425035 214.97491844 29.77950244 213.73064143 42.25 209.4375 C43.60617432 208.97887573 43.60617432 208.97887573 44.98974609 208.51098633 C51.35072611 206.28700009 57.08178486 203.65671747 62.5625 199.6875 C63.5525 199.0275 64.5425 198.3675 65.5625 197.6875 C65.81265873 194.10392759 65.81265873 194.10392759 65.5625 190.6875 C66.55830078 190.77451172 66.55830078 190.77451172 67.57421875 190.86328125 C73.44230966 191.21631714 73.44230966 191.21631714 78.5 188.5 C84.37190065 180.49286275 84.82176937 173.36050841 83.5625 163.6875 C82.31156328 158.06151216 80.06227418 152.85962968 77.5625 147.6875 C77.26811035 147.07777344 76.9737207 146.46804687 76.67041016 145.83984375 C71.93821362 136.3395424 65.71015018 128.4593991 58.5625 120.6875 C57.76328125 119.80578125 56.9640625 118.9240625 56.140625 118.015625 C52.195948 113.85331065 48.67524137 110.86498536 43.40625 108.5859375 C41.43651119 107.62610715 40.01394689 106.50912149 38.375 105.0625 C35.72748371 102.82681958 33.78043676 101.81812643 30.5625 100.6875 C29.5725 100.0275 28.5825 99.3675 27.5625 98.6875 C27.5625 98.0275 27.5625 97.3675 27.5625 96.6875 C29.06640625 95.27734375 29.06640625 95.27734375 31.125 93.625 C41.18623079 84.93252322 46.98526004 74.53465789 48.0078125 61.17578125 C48.6152792 46.59658042 45.29931953 34.84091021 35.5625 23.6875 C28.799884 16.36492217 18.40203517 9.22946011 8.23168945 8.52636719 C5.44600259 8.48059986 2.66103125 8.45223116 -0.125 8.4375 C-1.08083984 8.416875 -2.03667969 8.39625 -3.02148438 8.375 C-15.62508552 8.30626871 -26.99539776 13.13459483 -35.4375 22.6875 Z M-57.4375 71.6875 C-57.60765625 72.33976562 -57.7778125 72.99203125 -57.953125 73.6640625 C-59.44788098 79.05472504 -61.03956902 83.23503872 -64.4375 87.6875 C-63.756875 88.22375 -63.07625 88.76 -62.375 89.3125 C-60.15207454 91.10975888 -57.93982519 92.91292907 -55.75 94.75 C-55.16863281 95.23597656 -54.58726563 95.72195312 -53.98828125 96.22265625 C-52.4375 97.6875 -52.4375 97.6875 -50.4375 100.6875 C-47.06287285 100.14026317 -45.35515 99.6326 -42.4375 97.6875 C-43.51940214 95.34337869 -44.70272983 93.30860024 -46.1875 91.1875 C-50.10995775 85.41482633 -54.06930183 78.57794377 -55.4375 71.6875 C-56.0975 71.6875 -56.7575 71.6875 -57.4375 71.6875 Z " fill="#000303" transform="translate(162.4375,16.3125)"/>
<path d="M0 0 C8.85816313 6.13257448 14.43876223 12.62752446 19.25 22.25 C19.51104338 26.7950353 19.52124882 31.34416265 19.54516602 35.89575195 C19.55660085 37.40756656 19.57691546 38.91934356 19.60668945 40.4309082 C19.81320279 50.91924772 19.40456915 60.2210061 13.25 69.15234375 C12.59 69.82394531 11.93 70.49554688 11.25 71.1875 C10.59 71.87714844 9.93 72.56679687 9.25 73.27734375 C7.85856329 74.64975691 6.43943629 75.99442397 5 77.31640625 C2.91448451 79.18606011 2.91448451 79.18606011 3.25 82.25 C4.24 82.62125 4.24 82.62125 5.25 83 C11.10790985 85.44079577 15.79952392 87.64605923 20.25 92.25 C21.42755859 92.66572266 21.42755859 92.66572266 22.62890625 93.08984375 C25.77213943 94.48111089 26.95042631 95.95035565 29 98.6875 C31.88565177 102.46607043 34.82398929 106.16566902 37.875 109.8125 C48.20768597 122.45126987 48.20768597 122.45126987 49.25 129.25 C49.91 129.25 50.57 129.25 51.25 129.25 C52.23080991 131.6796205 53.20408963 134.1112803 54.16015625 136.55078125 C54.78928 138.10893363 55.44815426 139.65708679 56.18359375 141.16796875 C59.39695101 148.13280531 59.7148441 158.00139085 57.23046875 165.20703125 C56.90691406 165.88121094 56.58335937 166.55539063 56.25 167.25 C55.59 167.25 54.93 167.25 54.25 167.25 C53.92 168.24 53.59 169.23 53.25 170.25 C49.8583367 172.04004452 47.06355451 172.56779621 43.25 172.25 C41.46344932 170.46344932 41.77903253 167.75400505 41.5234375 165.328125 C39.61601545 148.5280129 37.29865124 132.154407 29.53515625 116.875 C28.25 114.25 28.25 114.25 28.25 111.25 C27.59 112.24 26.93 113.23 26.25 114.25 C23.15206114 111.36266663 20.95284037 108.42215434 18.75 104.8125 C15.43906374 99.40212916 12.02050661 94.7064074 7.1875 90.5625 C6.51589844 89.98113281 5.84429687 89.39976563 5.15234375 88.80078125 C0.94973489 85.37483522 -1.38231526 85.04744586 -6.75 85.25 C-5.76 84.26 -4.77 83.27 -3.75 82.25 C-4.966875 82.724375 -6.18375 83.19875 -7.4375 83.6875 C-19.13929142 88.2492153 -31.31396444 87.03856105 -42.75 82.25 C-50.3362493 78.29907201 -57.00414328 72.36878507 -61.75 65.25 C-63.73542649 58.52161024 -63.89972095 52.38462378 -63.72265625 45.38671875 C-63.74586789 42.72401241 -64.08539128 40.78346573 -64.75 38.25 C-63.75251156 34.8419145 -62.55484668 32.47050362 -59.75 30.25 C-59.09 30.25 -58.43 30.25 -57.75 30.25 C-57.8428125 28.4865625 -57.8428125 28.4865625 -57.9375 26.6875 C-57.96144173 22.21039699 -56.7379056 19.2258112 -54.75 15.25 C-57.39 17.56 -60.03 19.87 -62.75 22.25 C-63.08 21.26 -63.41 20.27 -63.75 19.25 C-60.64812688 13.49652567 -55.54661455 8.61522737 -50.75 4.25 C-50.17894531 3.71246094 -49.60789063 3.17492187 -49.01953125 2.62109375 C-35.25217558 -9.09143272 -15.26641892 -7.89763935 0 0 Z " fill="#9DD8E8" transform="translate(184.75,32.75)"/>
<path d="M0 0 C0.94294922 -0.02900391 1.88589844 -0.05800781 2.85742188 -0.08789062 C14.89381186 -0.19543225 25.89910514 5.24813343 34.609375 13.484375 C45.39102758 25.23880827 49.26372325 36.85861698 48.72265625 52.73046875 C47.91603848 64.75387783 43.09986531 75.2395942 34.0859375 83.3046875 C32.68487366 84.49781961 31.26352899 85.66785863 29.81640625 86.8046875 C27.95940547 88.3115769 27.95940547 88.3115769 28.3125 91.3125 C27.3225 90.9825 26.3325 90.6525 25.3125 90.3125 C25.39188679 87.61334915 25.73845629 85.86117161 27.7265625 83.9609375 C28.60441406 83.26871094 28.60441406 83.26871094 29.5 82.5625 C35.94413683 77.40453862 39.34799565 71.26244484 41.3125 63.3125 C41.70437739 58.60435077 41.72612866 53.90164669 41.73803711 49.1796875 C41.74993649 46.94940353 41.79920257 44.7218897 41.84960938 42.4921875 C41.94173048 34.37185146 41.4654685 27.95594279 36.3125 21.3125 C35.58196411 20.33772705 35.58196411 20.33772705 34.83666992 19.34326172 C29.4054841 12.36158394 23.16192066 8.09231378 14.609375 5.90234375 C12.3125 5.3125 12.3125 5.3125 9.4375 4.125 C-0.34612585 1.58125728 -10.51479 3.38586235 -19.6875 7.3125 C-26.88467567 11.92016688 -33.76465785 18.28792868 -38.6875 25.3125 C-38.6875 26.3025 -38.6875 27.2925 -38.6875 28.3125 C-36.3775 26.3325 -34.0675 24.3525 -31.6875 22.3125 C-31.6875 25.3125 -31.6875 25.3125 -32.625 27.5 C-33.58657388 30.04534261 -33.83011756 31.65933607 -34 34.3125 C-34.43713586 38.71684997 -36.50765607 40.29164827 -39.6875 43.3125 C-40.88739213 47.42641586 -40.52796905 50.20354019 -39.6875 54.3125 C-39.6875 55.89597039 -39.71091388 57.47951208 -39.75 59.0625 C-39.75 68.72563235 -38.07130568 73.94059275 -31.16796875 81.01953125 C-21.41668907 90.03370632 -10.09763017 94.08006781 3.2265625 93.64453125 C8.57889335 93.06864755 13.68109431 91.77821756 18.40234375 89.1484375 C20.3125 88.3125 20.3125 88.3125 23.3125 89.3125 C20.3425 90.7975 20.3425 90.7975 17.3125 92.3125 C18.9625 92.3125 20.6125 92.3125 22.3125 92.3125 C21.9825 93.3025 21.6525 94.2925 21.3125 95.3125 C20.19875 95.27125 19.085 95.23 17.9375 95.1875 C14.60642884 95.17575019 11.62446109 95.59039753 8.375 96.3125 C0.95163211 97.90160016 -5.33956849 97.57366076 -12.6796875 95.7578125 C-15.06190074 95.2294617 -17.25606286 95.16947429 -19.6875 95.3125 C-20.6775 95.3125 -21.6675 95.3125 -22.6875 95.3125 C-22.6875 94.6525 -22.6875 93.9925 -22.6875 93.3125 C-42.65478182 110.23300313 -53.27266212 128.67971713 -58.375 154.4375 C-58.69307617 155.96697266 -58.69307617 155.96697266 -59.01757812 157.52734375 C-60.22163826 163.44509043 -61.1132528 169.30371049 -61.6875 175.3125 C-61.89246094 176.81683594 -61.89246094 176.81683594 -62.1015625 178.3515625 C-62.42222218 182.28261261 -62.55469218 185.12346329 -60.171875 188.390625 C-53.98158626 193.66383392 -46.3513663 195.97627079 -38.6875 198.3125 C-37.75808594 198.61027344 -36.82867187 198.90804687 -35.87109375 199.21484375 C-16.65470044 204.97117021 6.73859227 205.85869793 26.3125 201.3125 C27.30612549 201.08723633 27.30612549 201.08723633 28.31982422 200.85742188 C36.64652637 199.16342686 36.64652637 199.16342686 44.52734375 196.1875 C46.3125 195.3125 46.3125 195.3125 50.3125 195.3125 C50.3125 194.6525 50.3125 193.9925 50.3125 193.3125 C50.93898437 192.97476563 51.56546875 192.63703125 52.2109375 192.2890625 C53.43683594 191.62003906 53.43683594 191.62003906 54.6875 190.9375 C55.90566406 190.27621094 55.90566406 190.27621094 57.1484375 189.6015625 C59.42064302 188.3681107 59.42064302 188.3681107 61.3125 186.3125 C64.15906782 166.94105147 57.65426047 142.58486267 48.98217773 125.34887695 C48.1875093 122.93242437 48.48335354 121.67963837 49.3125 119.3125 C49.9725 119.3125 50.6325 119.3125 51.3125 119.3125 C61.03819582 138.46265327 63.97493483 158.23454478 66.3125 179.3125 C71.66334415 179.06376383 71.66334415 179.06376383 76.1875 176.75 C76.55875 176.275625 76.93 175.80125 77.3125 175.3125 C77.9725 175.3125 78.6325 175.3125 79.3125 175.3125 C81.79783312 164.5563042 80.9695202 155.11710934 76.50390625 145.1171875 C75.38717924 142.48830228 74.76039402 140.12342112 74.3125 137.3125 C73.6525 137.3125 72.9925 137.3125 72.3125 137.3125 C71.89226562 136.44109375 71.47203125 135.5696875 71.0390625 134.671875 C66.59845454 126.03177806 60.91096214 118.59388433 54.30078125 111.515625 C51.96253755 108.92472236 50.11578778 106.29184503 48.3125 103.3125 C64.36020178 109.97098699 74.84854643 131.39954208 81.69921875 146.3359375 C85.06587293 154.95929732 86.54132183 166.23002821 83.2890625 175.10546875 C81.28402867 178.44111594 79.58014863 180.13406758 76.3125 182.3125 C73.83203125 182.5078125 73.83203125 182.5078125 71.125 182.4375 C70.22394531 182.41945312 69.32289063 182.40140625 68.39453125 182.3828125 C67.70746094 182.35960937 67.02039063 182.33640625 66.3125 182.3125 C66.47298828 183.92125 66.47298828 183.92125 66.63671875 185.5625 C66.3125 189.3125 66.3125 189.3125 64.20703125 191.5 C57.30974959 195.55619606 50.39602168 198.6075038 42.8125 201.1875 C41.97178955 201.47367188 41.1310791 201.75984375 40.26489258 202.0546875 C27.89864621 206.00088252 15.67854048 206.63894679 2.81054688 206.57324219 C0.31615908 206.56251573 -2.17750882 206.57320114 -4.671875 206.5859375 C-25.70951056 206.6060254 -45.99600398 203.23846383 -63.6875 191.3125 C-65.6875 189.3125 -65.6875 189.3125 -65.8125 185.6875 C-65.77125 184.57375 -65.73 183.46 -65.6875 182.3125 C-66.35136719 182.29832031 -67.01523438 182.28414062 -67.69921875 182.26953125 C-72.16349187 182.02839533 -74.93591488 181.85619988 -78.625 179.1875 C-82.04623372 174.41850755 -83.86413266 170.46422953 -83.76171875 164.578125 C-83.75100342 163.77665039 -83.74028809 162.97517578 -83.72924805 162.14941406 C-83.71547119 161.54323242 -83.70169434 160.93705078 -83.6875 160.3125 C-84.38609131 160.33344727 -85.08468262 160.35439453 -85.80444336 160.37597656 C-104.90700793 160.87169886 -121.93063202 160.61988803 -138.6875 150.3125 C-139.3475 149.6525 -140.0075 148.9925 -140.6875 148.3125 C-140.6875 146.9925 -140.6875 145.6725 -140.6875 144.3125 C-141.76 144.250625 -142.8325 144.18875 -143.9375 144.125 C-147.6875 143.3125 -147.6875 143.3125 -149.89453125 141.1484375 C-153.40152723 135.60142424 -152.31859747 128.77868148 -151.1796875 122.5234375 C-149.64466585 116.82444909 -147.08209756 112.11592263 -143.6875 107.3125 C-142.6875 110.3125 -142.6875 110.3125 -143.39453125 112.0390625 C-143.75933594 112.66554688 -144.12414062 113.29203125 -144.5 113.9375 C-148.05101355 120.64633529 -149.43012311 127.76249841 -148.6875 135.3125 C-147.12309628 138.82912056 -147.12309628 138.82912056 -144.6875 141.3125 C-143.3675 141.3125 -142.0475 141.3125 -140.6875 141.3125 C-140.0275 140.3225 -139.3675 139.3325 -138.6875 138.3125 C-138.6875 141.2825 -138.6875 144.2525 -138.6875 147.3125 C-137.3675 147.9725 -136.0475 148.6325 -134.6875 149.3125 C-133.93210938 149.80492187 -133.17671875 150.29734375 -132.3984375 150.8046875 C-129.11201268 152.63258373 -125.95183354 153.49998406 -122.3125 154.4375 C-121.04664062 154.77007812 -119.78078125 155.10265625 -118.4765625 155.4453125 C-110.41475484 157.29038601 -102.48810985 157.60084577 -94.25 157.875 C-93.04150391 157.91818359 -91.83300781 157.96136719 -90.58789062 158.00585938 C-87.62119394 158.11139404 -84.65442098 158.21350714 -81.6875 158.3125 C-81.75904297 156.78496094 -81.75904297 156.78496094 -81.83203125 155.2265625 C-81.68184838 151.15944794 -80.8930256 148.44002347 -79.375 144.6875 C-78.94574219 143.60210937 -78.51648438 142.51671875 -78.07421875 141.3984375 C-76.79188307 138.5447891 -75.32291241 135.97351002 -73.6875 133.3125 C-73.419375 132.52875 -73.15125 131.745 -72.875 130.9375 C-71.49320927 127.88301522 -69.73077061 125.86025486 -67.5 123.3828125 C-66.2006119 121.89859765 -64.95602655 120.3657138 -63.75 118.8046875 C-55.02338552 107.54350485 -44.98754699 99.55868754 -32.48828125 92.87109375 C-29.65332265 91.46101476 -29.65332265 91.46101476 -27.6875 89.3125 C-28.55761719 88.60287109 -28.55761719 88.60287109 -29.4453125 87.87890625 C-38.91425691 79.86311668 -46.88344914 68.92263326 -48.6875 56.3125 C-49.69442493 41.69770391 -48.19658121 29.76838298 -38.37109375 18.16796875 C-37.81550781 17.55566406 -37.25992188 16.94335938 -36.6875 16.3125 C-35.883125 15.425625 -35.07875 14.53875 -34.25 13.625 C-23.47992949 3.90566807 -14.44549819 0.14513227 0 0 Z " fill="#089EC2" transform="translate(161.6875,24.6875)"/>
<path d="M0 0 C6.03619669 0.67856573 12.50642112 0.8875854 18.4453125 -0.4296875 C21.328125 -0.73828125 21.328125 -0.73828125 23.70703125 0.4140625 C31.01984516 6.3925168 36.16218095 12.57790571 37.328125 22.26171875 C37.83605862 29.57233476 38.0548802 35.81156552 34.328125 42.26171875 C33.668125 42.92171875 33.008125 43.58171875 32.328125 44.26171875 C31.59917019 46.18350871 30.87445382 48.10715778 30.18359375 50.04296875 C29.33494217 52.2440377 28.34899255 54.29247664 27.265625 56.38671875 C24.43202233 61.93495604 23.16399123 67.09084545 22.328125 73.26171875 C18.24485439 73.32072555 14.16169618 73.3556481 10.078125 73.38671875 C8.93859375 73.40347656 7.7990625 73.42023438 6.625 73.4375 C-3.68891935 73.49610181 -15.81655383 73.33734269 -24.671875 67.26171875 C-25.37980186 65.94982631 -26.05170787 64.61730532 -26.671875 63.26171875 C-27.331875 62.93171875 -27.991875 62.60171875 -28.671875 62.26171875 C-30.14920866 59.16292132 -30.38869189 56.60847871 -29.671875 53.26171875 C-26.40395107 49.10205741 -22.68214278 45.69450797 -18.671875 42.26171875 C-18.8884375 41.72804687 -19.105 41.194375 -19.328125 40.64453125 C-22.53377456 32.06645048 -22.9519253 22.94051214 -19.671875 14.26171875 C-15.51675911 7.02677256 -8.79927161 -1.42341158 0 0 Z " fill="#B1E2C4" transform="translate(57.671875,109.73828125)"/>
<path d="M0 0 C3.08875845 2.16859692 4.94757026 4.22501831 6.11328125 7.828125 C6.81378429 14.272753 6.48858148 20.32632361 5.42578125 26.703125 C5.42852269 28.36991962 5.45108523 30.03674321 5.48828125 31.703125 C5.52573135 37.95729102 4.33622878 42.54405505 0.01953125 47.3125 C-5.79872433 52.3892132 -12.32086337 53.3153287 -19.83984375 53.01953125 C-24.98440518 52.424232 -27.62436505 50.56854726 -31.38671875 47.140625 C-35.25406546 42.19488354 -34.57421875 35.67966539 -34.57421875 29.703125 C-35.20947451 28.02423479 -35.88107967 26.35895725 -36.57421875 24.703125 C-38.89886951 18.58562301 -39.14872611 13.02910426 -37.57421875 6.703125 C-35.05260649 1.96528605 -30.92331282 -1.48925564 -26.02734375 -3.62890625 C-16.54485094 -6.2109226 -8.49872588 -4.55412104 0 0 Z " fill="#AEE1C0" transform="translate(81.57421875,55.296875)"/>
<path d="M0 0 C0.33 0 0.66 0 1 0 C1.5801132 11.94066331 1.22109104 21.5047183 -7 30.9375 C-9.02727366 33.0558426 -11.09027894 35.08291243 -13.25 37.06640625 C-15.33551549 38.93606011 -15.33551549 38.93606011 -15 42 C-14.34 42.2475 -13.68 42.495 -13 42.75 C-7.14209015 45.19079577 -2.45047608 47.39605923 2 52 C2.78503906 52.27714844 3.57007813 52.55429688 4.37890625 52.83984375 C7.52213943 54.23111089 8.70042631 55.70035565 10.75 58.4375 C13.63565177 62.21607043 16.57398929 65.91566902 19.625 69.5625 C29.95768597 82.20126987 29.95768597 82.20126987 31 89 C31.66 89 32.32 89 33 89 C33.98080991 91.4296205 34.95408963 93.8612803 35.91015625 96.30078125 C36.53928 97.85893363 37.19815426 99.40708679 37.93359375 100.91796875 C41.14695101 107.88280531 41.4648441 117.75139085 38.98046875 124.95703125 C38.65691406 125.63121094 38.33335937 126.30539063 38 127 C37.34 127 36.68 127 36 127 C35.67 127.99 35.34 128.98 35 130 C31.6083367 131.79004452 28.81355451 132.31779621 25 132 C23.21344932 130.21344932 23.52903253 127.50400505 23.2734375 125.078125 C21.36601545 108.2780129 19.04865124 91.904407 11.28515625 76.625 C10 74 10 74 10 71 C9.34 71.99 8.68 72.98 8 74 C4.90206114 71.11266663 2.70284037 68.17215434 0.5 64.5625 C-2.81093626 59.15212916 -6.22949339 54.4564074 -11.0625 50.3125 C-11.73410156 49.73113281 -12.40570313 49.14976563 -13.09765625 48.55078125 C-17.30026511 45.12483522 -19.63231526 44.79744586 -25 45 C-23.33333333 43.33333333 -21.66666667 41.66666667 -20 40 C-19.68933594 39.36449219 -19.37867188 38.72898438 -19.05859375 38.07421875 C-17.95561956 35.91304053 -16.74464248 34.54600561 -15.0625 32.8125 C-12.11298174 29.47733044 -10.93384572 26.42818112 -9.70703125 22.1953125 C-8.41332945 18.17840414 -6.11789255 14.79098983 -3.890625 11.22265625 C-1.62353133 7.46880912 -0.42634183 4.37000375 0 0 Z " fill="#62C3DB" transform="translate(203,73)"/>
<path d="M0 0 C16.04770178 6.65848699 26.53604643 28.08704208 33.38671875 43.0234375 C36.75337293 51.64679732 38.22882183 62.91752821 34.9765625 71.79296875 C32.97152867 75.12861594 31.26764863 76.82156758 28 79 C25.51953125 79.1953125 25.51953125 79.1953125 22.8125 79.125 C21.91144531 79.10695313 21.01039063 79.08890625 20.08203125 79.0703125 C19.39496094 79.04710937 18.70789063 79.02390625 18 79 C18.10699219 80.0725 18.21398437 81.145 18.32421875 82.25 C18 86 18 86 15.89453125 88.1875 C8.99724959 92.24369606 2.08352168 95.2950038 -5.5 97.875 C-6.34071045 98.16117187 -7.1814209 98.44734375 -8.04760742 98.7421875 C-20.41385379 102.68838252 -32.63395952 103.32644679 -45.50195312 103.26074219 C-47.99634092 103.25001573 -50.49000882 103.26070114 -52.984375 103.2734375 C-74.02201056 103.2935254 -94.30850398 99.92596383 -112 88 C-114 86 -114 86 -114.125 82.375 C-114.08375 81.26125 -114.0425 80.1475 -114 79 C-114.99580078 78.97873047 -114.99580078 78.97873047 -116.01171875 78.95703125 C-120.47599187 78.71589533 -123.24841488 78.54369988 -126.9375 75.875 C-130.35873372 71.10600755 -132.17663266 67.15172953 -132.07421875 61.265625 C-132.05814575 60.06341309 -132.05814575 60.06341309 -132.04174805 58.83691406 C-132.02797119 58.23073242 -132.01419434 57.62455078 -132 57 C-132.69859131 57.02094727 -133.39718262 57.04189453 -134.11694336 57.06347656 C-153.21950793 57.55919886 -170.24313202 57.30738803 -187 47 C-187.66 46.34 -188.32 45.68 -189 45 C-189 43.68 -189 42.36 -189 41 C-190.0725 40.938125 -191.145 40.87625 -192.25 40.8125 C-196 40 -196 40 -198.20703125 37.8359375 C-201.71402723 32.28892424 -200.63109747 25.46618148 -199.4921875 19.2109375 C-197.95716585 13.51194909 -195.39459756 8.80342263 -192 4 C-191 7 -191 7 -191.70703125 8.7265625 C-192.07183594 9.35304687 -192.43664062 9.97953125 -192.8125 10.625 C-196.36351355 17.33383529 -197.74262311 24.44999841 -197 32 C-195.43559628 35.51662056 -195.43559628 35.51662056 -193 38 C-191.68 38 -190.36 38 -189 38 C-188.34 37.01 -187.68 36.02 -187 35 C-187 37.97 -187 40.94 -187 44 C-185.68 44.66 -184.36 45.32 -183 46 C-182.24460938 46.49242187 -181.48921875 46.98484375 -180.7109375 47.4921875 C-177.42451268 49.32008373 -174.26433354 50.18748406 -170.625 51.125 C-169.35914063 51.45757812 -168.09328125 51.79015625 -166.7890625 52.1328125 C-158.72725484 53.97788601 -150.80060985 54.28834577 -142.5625 54.5625 C-141.35400391 54.60568359 -140.14550781 54.64886719 -138.90039062 54.69335938 C-135.93369394 54.79889404 -132.96692098 54.90100714 -130 55 C-130.061875 54.21625 -130.12375 53.4325 -130.1875 52.625 C-130.0946875 51.325625 -130.0946875 51.325625 -130 50 C-129.01 49.34 -128.02 48.68 -127 48 C-127.02320312 49.07378906 -127.04640625 50.14757812 -127.0703125 51.25390625 C-127.08908624 52.69009715 -127.1072847 54.12629565 -127.125 55.5625 C-127.15013672 56.61920898 -127.15013672 56.61920898 -127.17578125 57.69726562 C-127.22938968 63.51378006 -126.92342512 68.96971793 -122.75 73.375 C-119.1969223 75.47454591 -116.0902393 76 -112 76 C-111.95875 77.258125 -111.9175 78.51625 -111.875 79.8125 C-111.67357075 82.01598362 -111.67357075 82.01598362 -111 84 C-108.23353404 85.92491802 -108.23353404 85.92491802 -105 87 C-104.11441406 87.70189453 -104.11441406 87.70189453 -103.2109375 88.41796875 C-83.87999312 102.2501816 -50.33038774 102.39375428 -27.875 99.25 C-25.90876104 98.87239581 -23.95025768 98.45296307 -22 98 C-21.00637451 97.77473633 -21.00637451 97.77473633 -19.99267578 97.54492188 C-11.66597363 95.85092686 -11.66597363 95.85092686 -3.78515625 92.875 C-2 92 -2 92 2 92 C2 91.34 2 90.68 2 90 C2.62648437 89.66226563 3.25296875 89.32453125 3.8984375 88.9765625 C5.12433594 88.30753906 5.12433594 88.30753906 6.375 87.625 C7.59316406 86.96371094 7.59316406 86.96371094 8.8359375 86.2890625 C11.10814302 85.0556107 11.10814302 85.0556107 13 83 C15.84656782 63.62855147 9.34176047 39.27236267 0.66967773 22.03637695 C-0.1249907 19.61992437 0.17085354 18.36713837 1 16 C1.66 16 2.32 16 3 16 C12.72569582 35.15015327 15.66243483 54.92204478 18 76 C23.35084415 75.75126383 23.35084415 75.75126383 27.875 73.4375 C28.24625 72.963125 28.6175 72.48875 29 72 C29.66 72 30.32 72 31 72 C33.48533312 61.2438042 32.6570202 51.80460934 28.19140625 41.8046875 C27.07467924 39.17580228 26.44789402 36.81092112 26 34 C25.34 34 24.68 34 24 34 C23.57976562 33.12859375 23.15953125 32.2571875 22.7265625 31.359375 C18.28595454 22.71927806 12.59846214 15.28138433 5.98828125 8.203125 C3.65003755 5.61222236 1.80328778 2.97934503 0 0 Z " fill="#059DC1" transform="translate(210,128)"/>
<path d="M0 0 C1.32 0.33 2.64 0.66 4 1 C3.23816406 1.51046875 3.23816406 1.51046875 2.4609375 2.03125 C-3.99057708 6.57388948 -9.374804 11.49922824 -11.375 19.375 C-12.79574863 27.89949181 -12.25584696 34.97666286 -9 43 C-9.7940625 43.68964844 -10.588125 44.37929687 -11.40625 45.08984375 C-17.27110255 50.09676891 -17.27110255 50.09676891 -20.73046875 56.734375 C-20.74876096 59.43064012 -20.74876096 59.43064012 -20 63 C-18.515 63.495 -18.515 63.495 -17 64 C-15.8125 66.5625 -15.8125 66.5625 -15 69 C-19.13025826 67.54226179 -22.59953261 65.78220059 -26 63 C-26.875 59.75 -26.875 59.75 -27 57 C-29.475 57.495 -29.475 57.495 -32 58 C-36.2650028 52.77193205 -37.62532862 49.79084939 -37 43 C-35.75225399 36.91616255 -33.93331964 31.48403237 -31 26 C-30.72929687 25.0615625 -30.45859375 24.123125 -30.1796875 23.15625 C-28.85534952 19.61298811 -27.24290824 17.58264843 -24.6875 14.8125 C-23.92824219 13.97332031 -23.16898438 13.13414063 -22.38671875 12.26953125 C-18.90694602 8.96061479 -16.29535686 7.16191961 -11.5 6.5625 C-7.5052933 5.92049357 -6.00782012 4.59006733 -3 2 C-2.01 2 -1.02 2 0 2 C0 1.34 0 0.68 0 0 Z " fill="#18A84E" transform="translate(49,109)"/>
<path d="M0 0 C0 3.97819339 -1.47340623 4.98837077 -4 8 C-18.56567422 28.75233172 -22.53417691 52.24443396 -25 77 C-30.46493456 76.28253652 -33.12052109 75.05581886 -37 71 C-40.6911073 62.44334217 -39.50300733 53.87792407 -36.40234375 45.359375 C-34.74264522 41.38349552 -32.95584911 37.49444327 -31.0625 33.625 C-30.73894531 32.95903809 -30.41539063 32.29307617 -30.08203125 31.60693359 C-27.85778382 27.21691348 -25.37749684 23.5945024 -22 20 C-21.34 20 -20.68 20 -20 20 C-18.77842417 18.56584602 -17.62332463 17.07484484 -16.5 15.5625 C-12.03126497 9.81698354 -6.62176123 3.31088062 0 0 Z " fill="#80CFE2" transform="translate(121,128)"/>
<path d="M0 0 C0.94294922 -0.02900391 1.88589844 -0.05800781 2.85742188 -0.08789062 C14.89381186 -0.19543225 25.89910514 5.24813343 34.609375 13.484375 C45.39102758 25.23880827 49.26372325 36.85861698 48.72265625 52.73046875 C47.91603848 64.75387783 43.09986531 75.2395942 34.0859375 83.3046875 C32.68487366 84.49781961 31.26352899 85.66785863 29.81640625 86.8046875 C27.95940547 88.3115769 27.95940547 88.3115769 28.3125 91.3125 C26.8275 90.8175 26.8275 90.8175 25.3125 90.3125 C25.39188679 87.61334915 25.73845629 85.86117161 27.7265625 83.9609375 C28.60441406 83.26871094 28.60441406 83.26871094 29.5 82.5625 C35.94413683 77.40453862 39.34799565 71.26244484 41.3125 63.3125 C41.70437739 58.60435077 41.72612866 53.90164669 41.73803711 49.1796875 C41.74993649 46.94940353 41.79920257 44.7218897 41.84960938 42.4921875 C41.94173048 34.37185146 41.4654685 27.95594279 36.3125 21.3125 C35.82547607 20.66265137 35.33845215 20.01280273 34.83666992 19.34326172 C29.4054841 12.36158394 23.16192066 8.09231378 14.609375 5.90234375 C12.3125 5.3125 12.3125 5.3125 9.4375 4.125 C-0.34612585 1.58125728 -10.51479 3.38586235 -19.6875 7.3125 C-23.77592158 9.92992739 -27.21952801 12.92670744 -30.6875 16.3125 C-31.45191406 17.02664062 -32.21632812 17.74078125 -33.00390625 18.4765625 C-38.54553653 24.08963184 -40.64026972 29.80261069 -42.6875 37.3125 C-43.04457031 38.28316406 -43.40164062 39.25382812 -43.76953125 40.25390625 C-46.39465806 49.00060537 -45.25666004 58.97900248 -41.6875 67.3125 C-41.0275 68.3025 -40.3675 69.2925 -39.6875 70.3125 C-40.0625 72.5 -40.0625 72.5 -40.6875 74.3125 C-48.95594753 64.80378534 -49.49789538 52.56136593 -48.90966797 40.57470703 C-47.97501248 31.05765457 -42.96833412 23.23453296 -36.6875 16.3125 C-35.883125 15.425625 -35.07875 14.53875 -34.25 13.625 C-23.47992949 3.90566807 -14.44549819 0.14513227 0 0 Z " fill="#0293B8" transform="translate(161.6875,24.6875)"/>
<path d="M0 0 C0.93552393 2.8065718 0.96365406 4.72691875 0.8125 7.75 C0.72924734 11.1889753 1.43763962 13.2021701 3.125 16.1875 C5.08464567 19.66141732 5.08464567 19.66141732 4.25 23 C3.8375 23.66 3.425 24.32 3 25 C3.66 25.33 4.32 25.66 5 26 C5.23828125 28.07421875 5.23828125 28.07421875 5.3125 30.6875 C5.75597847 36.12594644 6.97277552 38.33888684 11 42 C17.25334983 45.04758533 24.27724825 45.22906674 30.86328125 43.0546875 C35.5732769 40.83575622 39.33997012 38.62613893 42 34 C43.03222975 30.07615977 43.07436459 26.41857448 43 22.375 C42.88937093 16.3318872 42.88937093 16.3318872 44 13 C44.06937062 10.77181559 44.08457084 8.54165476 44.0625 6.3125 C44.05347656 5.13300781 44.04445312 3.95351562 44.03515625 2.73828125 C44.02355469 1.83464844 44.01195312 0.93101563 44 0 C46.52096077 2.52096077 46.52204774 4.07908082 47.0625 7.5625 C47.35968163 11.09095166 47.35968163 11.09095166 49 14 C49.12619896 15.91352846 49.17580701 17.83235023 49.1875 19.75 C49.20167969 20.79671875 49.21585938 21.8434375 49.23046875 22.921875 C48.99844213 26.02080677 48.31055867 28.20276014 47 31 C46.34 31 45.68 31 45 31 C44.7525 31.70125 44.505 32.4025 44.25 33.125 C42.25632458 37.71045347 40.19011964 41.20658691 36 44 C37.0725 44.5775 38.145 45.155 39.25 45.75 C41.67730438 47.11749542 43.21397822 48.22009189 45.1875 50.25 C47.05969172 52.46306301 47.05969172 52.46306301 51 52 C53.69140625 54.046875 53.69140625 54.046875 56.5625 56.75 C57.98755859 58.07257813 57.98755859 58.07257813 59.44140625 59.421875 C64.75525813 64.77629063 64.75525813 64.77629063 65.5 68.5 C65 71 65 71 62.76953125 72.765625 C59.68375771 75.25513482 57.48139184 78.05916209 55.1875 81.25 C54.78080078 81.80429688 54.37410156 82.35859375 53.95507812 82.9296875 C52.96408289 84.28210453 51.98118534 85.64044907 51 87 C50.67 86.34 50.34 85.68 50 85 C50.495 83.515 50.495 83.515 51 82 C51.63650486 71.17941734 51.06874488 61.67123112 44 53 C41.54572018 50.5760824 39.18106137 48.37481676 36 47 C33.08984243 47.30589215 33.08984243 47.30589215 30 48 C27.81392342 48.08922762 25.62539069 48.13016621 23.4375 48.125 C21.79587891 48.12886719 21.79587891 48.12886719 20.12109375 48.1328125 C17.29391087 48.01250685 14.7489274 47.64499972 12 47 C12 46.34 12 45.68 12 45 C10.79859072 44.28452053 9.56180563 43.62811669 8.3125 43 C3.13648287 39.92932554 0.96429575 35.57180044 -1 30 C-1 29.01 -1 28.02 -1 27 C-1.66 27 -2.32 27 -3 27 C-3.63959391 7.27918782 -3.63959391 7.27918782 0 0 Z " fill="#15AA4D" transform="translate(43,63)"/>
<path d="M0 0 C16.04770178 6.65848699 26.53604643 28.08704208 33.38671875 43.0234375 C36.75337293 51.64679732 38.22882183 62.91752821 34.9765625 71.79296875 C32.97152867 75.12861594 31.26764863 76.82156758 28 79 C25.51953125 79.1953125 25.51953125 79.1953125 22.8125 79.125 C21.91144531 79.10695313 21.01039063 79.08890625 20.08203125 79.0703125 C19.39496094 79.04710937 18.70789063 79.02390625 18 79 C18.11988281 80.06863281 18.23976562 81.13726562 18.36328125 82.23828125 C18 86 18 86 15.54296875 88.29296875 C13.88201172 89.23076172 13.88201172 89.23076172 12.1875 90.1875 C11.600896 90.52136719 11.01429199 90.85523438 10.40991211 91.19921875 C3.41229068 95.06883633 -3.83175654 98.64486133 -12 98 C-12.495 98.495 -12.495 98.495 -13 99 C-14.51928038 99.07179964 -16.04167482 99.08392007 -17.5625 99.0625 C-18.80193359 99.04896484 -18.80193359 99.04896484 -20.06640625 99.03515625 C-21.02353516 99.01775391 -21.02353516 99.01775391 -22 99 C-17.83880016 96.67933086 -13.484381 95.84140763 -8.875 94.78125 C-6.05710653 94.12278647 -6.05710653 94.12278647 -3.875 92.90625 C-2 92 -2 92 2 92 C2 91.34 2 90.68 2 90 C2.93972656 89.49339844 2.93972656 89.49339844 3.8984375 88.9765625 C5.12433594 88.30753906 5.12433594 88.30753906 6.375 87.625 C7.18710938 87.18414062 7.99921875 86.74328125 8.8359375 86.2890625 C11.10814302 85.0556107 11.10814302 85.0556107 13 83 C15.84656782 63.62855147 9.34176047 39.27236267 0.66967773 22.03637695 C-0.1249907 19.61992437 0.17085354 18.36713837 1 16 C1.66 16 2.32 16 3 16 C12.72569582 35.15015327 15.66243483 54.92204478 18 76 C23.35084415 75.75126383 23.35084415 75.75126383 27.875 73.4375 C28.24625 72.963125 28.6175 72.48875 29 72 C29.66 72 30.32 72 31 72 C33.48533312 61.2438042 32.6570202 51.80460934 28.19140625 41.8046875 C27.07467924 39.17580228 26.44789402 36.81092112 26 34 C25.34 34 24.68 34 24 34 C23.36964844 32.69289063 23.36964844 32.69289063 22.7265625 31.359375 C18.28595454 22.71927806 12.59846214 15.28138433 5.98828125 8.203125 C3.65003755 5.61222236 1.80328778 2.97934503 0 0 Z " fill="#029ABE" transform="translate(210,128)"/>
<path d="M0 0 C0 0.33 0 0.66 0 1 C-0.76183594 1.01417969 -1.52367187 1.02835938 -2.30859375 1.04296875 C-10.69362056 1.43029209 -16.54583513 2.9481468 -22.81640625 8.65234375 C-27.80692304 14.34033036 -28.35456716 20.68230037 -29 28 C-29.10957031 29.15628906 -29.21914063 30.31257813 -29.33203125 31.50390625 C-29.58270215 34.33481632 -29.80587372 37.1647346 -30 40 C-29.34 40 -28.68 40 -28 40 C-27.731875 40.80824219 -27.46375 41.61648437 -27.1875 42.44921875 C-24.42055191 49.99461338 -22.16577427 53.48829605 -15 57 C-14.34 57.66 -13.68 58.32 -13 59 C-15.64 59 -18.28 59 -21 59 C-21 59.66 -21 60.32 -21 61 C-28.18823529 65.28529412 -28.18823529 65.28529412 -32 66 C-34.3347961 66.66152556 -36.66836622 67.32741333 -39 68 C-34.35292803 63.07128731 -29.25667159 58.7529355 -23 56 C-23.86625 55.38125 -24.7325 54.7625 -25.625 54.125 C-30.58211481 50.02743242 -33.98187656 44.05437032 -36 38 C-36.99282801 27.15429653 -36.00646406 19.43872924 -30 10 C-29.34 10 -28.68 10 -28 10 C-27.67 9.01 -27.34 8.02 -27 7 C-26.01 7 -25.02 7 -24 7 C-24 6.34 -24 5.68 -24 5 C-15.84212711 0.42243606 -9.30006424 -0.66534641 0 0 Z " fill="#0E9A32" transform="translate(70,50)"/>
<path d="M0 0 C0.98843423 2.96530268 1.02062607 4.56685252 0.875 7.625 C0.79749879 12.89508217 2.03206384 17.15044304 4 22 C2.80890625 23.03447266 2.80890625 23.03447266 1.59375 24.08984375 C-4.27110255 29.09676891 -4.27110255 29.09676891 -7.73046875 35.734375 C-7.74876096 38.43064012 -7.74876096 38.43064012 -7 42 C-6.01 42.33 -5.02 42.66 -4 43 C-2.8125 45.5625 -2.8125 45.5625 -2 48 C-6.02140769 46.62123165 -8.96872323 45.00610005 -12 42 C-14.00905255 30.97128497 -11.56499346 17.72927428 -6 8 C-4.43572966 5.86856731 -2.77571027 3.96767895 -1 2 C-0.67 1.34 -0.34 0.68 0 0 Z " fill="#57C17E" transform="translate(36,130)"/>
<path d="M0 0 C2 2 2 2 3 5 C3.5053125 5.38671875 4.010625 5.7734375 4.53125 6.171875 C6.92757693 9.15453725 6.53011875 12.58428087 6.5 16.25 C6.49427979 17.04978271 6.48855957 17.84956543 6.48266602 18.67358398 C6.13326098 30.54276712 2.50537829 41.42519006 -6 50 C-8.1215143 51.898197 -10.25751094 53.73360442 -12.49609375 55.4921875 C-14.35309453 56.9990769 -14.35309453 56.9990769 -14 60 C-14.99 59.67 -15.98 59.34 -17 59 C-16.92061321 56.30084915 -16.57404371 54.54867161 -14.5859375 52.6484375 C-14.00070313 52.18695313 -13.41546875 51.72546875 -12.8125 51.25 C-6.36721642 46.09112076 -2.96699446 39.95012608 -1 32 C-0.78166939 29.44439513 -0.64772472 26.88057607 -0.5859375 24.31640625 C-0.56657135 23.61603745 -0.5472052 22.91566864 -0.5272522 22.19407654 C-0.46805109 19.98367019 -0.42131275 17.77321005 -0.375 15.5625 C-0.33676524 14.05271319 -0.29771042 12.5429469 -0.2578125 11.03320312 C-0.1624003 7.35565801 -0.07815301 3.67795706 0 0 Z " fill="#069ABE" transform="translate(204,56)"/>
<path d="M0 0 C1 3 1 3 0.29296875 4.7265625 C-0.07183594 5.35304687 -0.43664062 5.97953125 -0.8125 6.625 C-4.36351355 13.33383529 -5.74262311 20.44999841 -5 28 C-3.43559628 31.51662056 -3.43559628 31.51662056 -1 34 C0.32 34 1.64 34 3 34 C3.66 33.01 4.32 32.02 5 31 C5 33.97 5 36.94 5 40 C6.32 40.66 7.64 41.32 9 42 C9.75539063 42.49242187 10.51078125 42.98484375 11.2890625 43.4921875 C14.57548732 45.32008373 17.73566646 46.18748406 21.375 47.125 C22.64085938 47.45757812 23.90671875 47.79015625 25.2109375 48.1328125 C33.10835281 49.94026219 40.8682098 50.28266674 48.9375 50.5625 C50.67870117 50.62727539 50.67870117 50.62727539 52.45507812 50.69335938 C55.30326601 50.79884782 58.1516187 50.89986992 61 51 C61 54.63 61 58.26 61 62 C60.67 62 60.34 62 60 62 C60 59.03 60 56.06 60 53 C59.30140869 53.02094727 58.60281738 53.04189453 57.88305664 53.06347656 C38.78049207 53.55919886 21.75686798 53.30738803 5 43 C4.34 42.34 3.68 41.68 3 41 C3 39.68 3 38.36 3 37 C1.9275 36.938125 0.855 36.87625 -0.25 36.8125 C-4 36 -4 36 -6.20703125 33.8359375 C-9.71402723 28.28892424 -8.63109747 21.46618148 -7.4921875 15.2109375 C-5.95716585 9.51194909 -3.39459756 4.80342263 0 0 Z " fill="#0B9241" transform="translate(18,132)"/>
<path d="M0 0 C0 3 0 3 -0.9375 5.1875 C-1.89907388 7.73284261 -2.14261756 9.34683607 -2.3125 12 C-2.74963586 16.40434997 -4.82015607 17.97914827 -8 21 C-9.19989213 25.11391586 -8.84046905 27.89104019 -8 32 C-7.97498138 33.60397156 -7.9779601 35.20848475 -8 36.8125 C-8.053969 41.31216575 -7.65905197 45.5513992 -7 50 C-12.9686801 43.82550334 -14.17282207 36.38616468 -14.4375 28.0625 C-14.14970775 17.44872174 -11.05960171 10.37263427 -3.8046875 2.6796875 C-2 1 -2 1 0 0 Z " fill="#43B1D1" transform="translate(130,47)"/>
<path d="M0 0 C0.85529297 -0.01611328 1.71058594 -0.03222656 2.59179688 -0.04882812 C8.42376916 -0.05327662 12.72050205 0.96647772 18.0625 3.3125 C18.0625 3.9725 18.0625 4.6325 18.0625 5.3125 C14.33497477 7.02472165 11.40773326 7.56873584 7.31640625 7.578125 C6.23166016 7.58070312 5.14691406 7.58328125 4.02929688 7.5859375 C2.90587891 7.57820313 1.78246094 7.57046875 0.625 7.5625 C-0.49455078 7.57023437 -1.61410156 7.57796875 -2.76757812 7.5859375 C-8.18469004 7.57307789 -12.89431864 7.55391394 -17.9375 5.3125 C-17.6075 4.3225 -17.2775 3.3325 -16.9375 2.3125 C-11.34239155 0.09080355 -5.96471497 -0.02237327 0 0 Z " fill="#DEF2F7" transform="translate(161.9375,32.6875)"/>
<path d="M0 0 C2.9375 0.25 2.9375 0.25 6 1 C8.1165563 4.17483445 8.22929149 4.66699005 7.9765625 8.23046875 C7.925 9.03291016 7.8734375 9.83535156 7.8203125 10.66210938 C7.72363281 11.91217773 7.72363281 11.91217773 7.625 13.1875 C7.56828125 14.03248047 7.5115625 14.87746094 7.453125 15.74804688 C7.31179176 17.83271217 7.1571675 19.91646866 7 22 C5.35 22.33 3.7 22.66 2 23 C-2.28003426 17.75350639 -3.51443514 14.81014135 -3 8 C-1.73205742 1.73205742 -1.73205742 1.73205742 0 0 Z " fill="#90D6B4" transform="translate(15,144)"/>
<path d="M0 0 C0 3.94730174 -1.82131856 6.37736222 -3.75 9.6875 C-8.13242863 17.47945037 -10.2585706 25.28139621 -12 34 C-12.66 33.01 -13.32 32.02 -14 31 C-15.25 29.25 -15.25 29.25 -17 28 C-19.62570704 27.74930087 -19.62570704 27.74930087 -22 28 C-20.7786688 23.9602122 -19.48173509 20.43624858 -17 17 C-16.36449219 16.71125 -15.72898437 16.4225 -15.07421875 16.125 C-12.48209772 14.71910385 -11.67687993 13.27379078 -10.1875 10.75 C-7.32555625 6.21919902 -4.21301456 3.28615135 0 0 Z " fill="#58C285" transform="translate(36,117)"/>
<path d="M0 0 C0.33 0 0.66 0 1 0 C1.5808958 11.95677183 1.16528075 21.47272282 -6.9375 31 C-9.67996424 33.96600506 -12.35217405 36.22000146 -16 38 C-16.99 37.67 -17.98 37.34 -19 37 C-18.52949219 36.52691406 -18.05898437 36.05382812 -17.57421875 35.56640625 C-13.54576155 31.28773432 -11.2600873 27.80605729 -9.671875 22.16015625 C-8.42351246 18.14652553 -6.10766652 14.77460658 -3.890625 11.22265625 C-1.62353133 7.46880912 -0.42634183 4.37000375 0 0 Z " fill="#8ED2E4" transform="translate(203,73)"/>
<path d="M0 0 C0.99 0.33 1.98 0.66 3 1 C-5.0597546 6.37316973 -16.32771365 6.15389836 -25.734375 6.16796875 C-26.53425842 6.17129715 -27.33414185 6.17462555 -28.15826416 6.17805481 C-29.8389021 6.18307973 -31.51954987 6.18546452 -33.20019531 6.18530273 C-35.72999063 6.18748276 -38.25934434 6.20566847 -40.7890625 6.22460938 C-50.04620073 6.25651723 -58.88438226 5.81457451 -68 4 C-68.94069336 3.81332764 -69.88138672 3.62665527 -70.85058594 3.43432617 C-71.55989258 3.29099854 -72.26919922 3.1476709 -73 3 C-73 2.67 -73 2.34 -73 2 C-70.49992418 1.97269335 -68.0001551 1.95301515 -65.5 1.9375 C-64.45585937 1.92493164 -64.45585937 1.92493164 -63.390625 1.91210938 C-59.25792532 1.89297651 -55.33593969 2.20203187 -51.23339844 2.76635742 C-46.46372639 3.26532727 -41.66586913 3.19069889 -36.875 3.1875 C-35.74586182 3.18741943 -34.61672363 3.18733887 -33.45336914 3.18725586 C-15.82091395 4.26156929 -15.82091395 4.26156929 0 0 Z " fill="#0299BD" transform="translate(198,225)"/>
<path d="M0 0 C2.96175123 0.61277612 4.38058783 1.25372522 7 3 C8.46572922 5.31679779 9.7468986 7.57298948 11 10 C11.37769531 10.66128906 11.75539063 11.32257813 12.14453125 12.00390625 C15.52238271 18.48508414 16.1375971 24.79806946 15 32 C12.60132455 38.32740302 9.14637944 43.61044107 4 48 C3.34 47.67 2.68 47.34 2 47 C2.78551657 45.68381002 3.5786237 44.37214772 4.375 43.0625 C4.81585938 42.33160156 5.25671875 41.60070312 5.7109375 40.84765625 C7 39 7 39 9 38 C10.22942897 34.66186691 10.13358474 31.33653743 10.125 27.8125 C10.12757812 26.74644531 10.13015625 25.68039063 10.1328125 24.58203125 C10.29258972 22.06930652 10.29258972 22.06930652 9 21 C8.7022682 19.2961487 8.43700796 17.586578 8.1875 15.875 C7.08064328 9.51470392 5.06969312 4.30923915 0 0 Z " fill="#2CA440" transform="translate(81,55)"/>
<path d="M0 0 C0.93552393 2.8065718 0.96365406 4.72691875 0.8125 7.75 C0.72924734 11.1889753 1.43763962 13.2021701 3.125 16.1875 C5.08464567 19.66141732 5.08464567 19.66141732 4.25 23 C3.8375 23.66 3.425 24.32 3 25 C3.66 25.33 4.32 25.66 5 26 C5.4140625 28.1796875 5.4140625 28.1796875 5.625 30.875 C5.69976562 31.75929688 5.77453125 32.64359375 5.8515625 33.5546875 C5.96158295 35.36712973 6 37.18422157 6 39 C3 38 3 38 1.83203125 36.2578125 C1.49558594 35.55398437 1.15914062 34.85015625 0.8125 34.125 C0.46832031 33.42632812 0.12414063 32.72765625 -0.23046875 32.0078125 C-1 30 -1 30 -1 27 C-1.66 27 -2.32 27 -3 27 C-3.63959391 7.27918782 -3.63959391 7.27918782 0 0 Z " fill="#75CA89" transform="translate(43,63)"/>
<path d="M0 0 C0.845625 0.04447266 1.69125 0.08894531 2.5625 0.13476562 C6.70972395 0.39969081 9.69911098 0.75551776 13.375 2.8125 C13.375 3.1425 13.375 3.4725 13.375 3.8125 C12.81627197 3.79155273 12.25754395 3.77060547 11.68188477 3.74902344 C9.10061327 3.66483706 6.51963176 3.61352307 3.9375 3.5625 C3.05900391 3.52898438 2.18050781 3.49546875 1.27539062 3.4609375 C-4.53133418 3.37522938 -8.65685818 4.28208643 -13.83227539 6.94628906 C-15.625 7.8125 -15.625 7.8125 -17.625 7.8125 C-17.625 8.4725 -17.625 9.1325 -17.625 9.8125 C-18.615 10.1425 -19.605 10.4725 -20.625 10.8125 C-20.955 11.4725 -21.285 12.1325 -21.625 12.8125 C-22.285 12.8125 -22.945 12.8125 -23.625 12.8125 C-23.893125 13.493125 -24.16125 14.17375 -24.4375 14.875 C-25.625 17.8125 -25.625 17.8125 -27.1875 20.8125 C-29.53317334 26.13172893 -29.37538857 32.08865178 -29.625 37.8125 C-29.955 37.8125 -30.285 37.8125 -30.625 37.8125 C-31.39459659 27.38019068 -30.9362252 19.61465866 -24.625 10.8125 C-17.28929375 2.73145461 -10.87681944 -0.82831163 0 0 Z " fill="#00852F" transform="translate(63.625,47.1875)"/>
<path d="M0 0 C-0.33 1.32 -0.66 2.64 -1 4 C-0.44699219 4.10183594 0.10601562 4.20367187 0.67578125 4.30859375 C9.99907597 7.08207806 20.702226 15.57099334 25.5625 24 C26.036875 24.99 26.51125 25.98 27 27 C25.68 27.99 24.36 28.98 23 30 C22.74605469 29.2678125 22.49210937 28.535625 22.23046875 27.78125 C19.01525935 20.51385605 12.54438854 15.22658426 6 11 C5.67 11.66 5.34 12.32 5 13 C4.46890625 12.51789063 3.9378125 12.03578125 3.390625 11.5390625 C2.68421875 10.90742187 1.9778125 10.27578125 1.25 9.625 C0.55390625 8.99851562 -0.1421875 8.37203125 -0.859375 7.7265625 C-2.84508688 6.12494817 -4.67954093 5.03479932 -7 4 C-2.25 0 -2.25 0 0 0 Z " fill="#059A3C" transform="translate(85,103)"/>
<path d="M0 0 C2.52096077 2.52096077 2.52204774 4.07908082 3.0625 7.5625 C3.35968163 11.09095166 3.35968163 11.09095166 5 14 C5.12619896 15.91352846 5.17580701 17.83235023 5.1875 19.75 C5.20167969 20.79671875 5.21585938 21.8434375 5.23046875 22.921875 C4.99844213 26.02080677 4.31055867 28.20276014 3 31 C2.34 31 1.68 31 1 31 C0.7525 31.70125 0.505 32.4025 0.25 33.125 C-1.80709346 37.85631495 -3.7022226 41.68757869 -8.5 43.9375 C-11.94918162 44.98457299 -12.77588108 45.02521325 -16 44 C-15.32453125 43.69707031 -14.6490625 43.39414063 -13.953125 43.08203125 C-6.90369079 39.84401445 -6.90369079 39.84401445 -2 34 C-0.96777025 30.07615977 -0.92563541 26.41857448 -1 22.375 C-1.11062907 16.3318872 -1.11062907 16.3318872 0 13 C0.06937062 10.77181559 0.08457084 8.54165476 0.0625 6.3125 C0.05347656 5.13300781 0.04445313 3.95351562 0.03515625 2.73828125 C0.02355469 1.83464844 0.01195313 0.93101563 0 0 Z " fill="#76CA8F" transform="translate(87,63)"/>
<path d="M0 0 C1.670625 0.99 1.670625 0.99 3.375 2 C3.045 2.66 2.715 3.32 2.375 4 C-6.23608026 6.02162062 -15.95951136 5.65056927 -24.625 4 C-18.66774025 -3.35896793 -8.00587358 -3.98168226 0 0 Z " fill="#CFECD9" transform="translate(76.625,53)"/>
<path d="M0 0 C12.67514204 5.25914984 22.40361807 21.6626084 28.625 33.125 C28.98037842 33.77694336 29.33575684 34.42888672 29.7019043 35.10058594 C30.53610315 36.69997862 31.27719693 38.34727486 32 40 C31.67 40.66 31.34 41.32 31 42 C28 41 28 41 26 38 C26 36.68 26 35.36 26 34 C25.34 34 24.68 34 24 34 C23.36964844 32.69289063 23.36964844 32.69289063 22.7265625 31.359375 C18.28595454 22.71927806 12.59846214 15.28138433 5.98828125 8.203125 C3.65003755 5.61222236 1.80328778 2.97934503 0 0 Z " fill="#0794B6" transform="translate(210,128)"/>
<path d="M0 0 C0.33 0 0.66 0 1 0 C2.31360575 7.50631859 3.24619877 14.94587693 3.4375 22.5625 C3.49744141 24.51349609 3.49744141 24.51349609 3.55859375 26.50390625 C2.86129496 30.86811895 1.25911043 32.14262891 -2 35 C-2.33 35.99 -2.66 36.98 -3 38 C-5.40014337 39.21634886 -7.68778543 40.22789393 -10.1875 41.1875 C-10.84814453 41.46013672 -11.50878906 41.73277344 -12.18945312 42.01367188 C-16.30138204 43.63327665 -19.52176088 44.1970697 -24 44 C-24.495 44.495 -24.495 44.495 -25 45 C-26.51928038 45.07179964 -28.04167482 45.08392007 -29.5625 45.0625 C-30.38878906 45.05347656 -31.21507812 45.04445312 -32.06640625 45.03515625 C-32.70449219 45.02355469 -33.34257812 45.01195312 -34 45 C-29.83880016 42.67933086 -25.484381 41.84140763 -20.875 40.78125 C-18.05710653 40.12278647 -18.05710653 40.12278647 -15.875 38.90625 C-14 38 -14 38 -10 38 C-10 37.34 -10 36.68 -10 36 C-9.37351563 35.66226563 -8.74703125 35.32453125 -8.1015625 34.9765625 C-6.87566406 34.30753906 -6.87566406 34.30753906 -5.625 33.625 C-4.81289062 33.18414062 -4.00078125 32.74328125 -3.1640625 32.2890625 C-0.89185698 31.0556107 -0.89185698 31.0556107 1 29 C1.98318039 19.51814163 0.63038273 9.50076822 0 0 Z " fill="#10A1C3" transform="translate(222,182)"/>
<path d="M0 0 C1.25253002 0.59890392 2.50190988 1.2043977 3.75 1.8125 C4.79414062 2.31716797 4.79414062 2.31716797 5.859375 2.83203125 C8 4 8 4 9.85546875 5.48046875 C17.37707685 10.80998706 28.13886764 12.77567494 37 15 C37 15.33 37 15.66 37 16 C23.52190728 16.86030379 11.90139235 13.09614806 1 5 C-0.3359375 2.78125 -0.3359375 2.78125 -1 1 C-0.67 0.67 -0.34 0.34 0 0 Z " fill="#0694B5" transform="translate(97,211)"/>
<path d="M0 0 C2 1 2 1 2.625 2.625 C3.12095645 5.7660575 3.06103811 8.82601831 3 12 C3.99 11.67 4.98 11.34 6 11 C6.18175781 11.90492187 6.18175781 11.90492187 6.3671875 12.828125 C6.53476563 13.62734375 6.70234375 14.4265625 6.875 15.25 C7.03742188 16.03890625 7.19984375 16.8278125 7.3671875 17.640625 C8.42501609 21.58462789 9.71435214 23.71435214 12.625 26.625 C15 29 15 29 15 31 C16.65 31.33 18.3 31.66 20 32 C20 32.66 20 33.32 20 34 C21.65 34.33 23.3 34.66 25 35 C25 35.66 25 36.32 25 37 C15.58551492 34.64637873 7.29920225 26.94880338 2 19 C-0.07397757 12.73966029 -0.24561176 6.53600177 0 0 Z " fill="#6AC3DC" transform="translate(121,79)"/>
<path d="M0 0 C0.66 0 1.32 0 2 0 C5.43899221 6.77146697 8.01642889 13.71429965 10.3125 20.9375 C10.57885254 21.76612549 10.84520508 22.59475098 11.11962891 23.44848633 C11.36503418 24.23763428 11.61043945 25.02678223 11.86328125 25.83984375 C12.08282471 26.54488037 12.30236816 27.24991699 12.52856445 27.97631836 C13 30 13 30 13 34 C12.34 34 11.68 34 11 34 C10.67 35.32 10.34 36.64 10 38 C9.70867187 36.80246094 9.41734375 35.60492188 9.1171875 34.37109375 C6.7457394 24.87844744 4.02488235 15.94745769 0.0390625 7.00390625 C-0.99505301 4.01430164 -1.19670694 2.8650572 0 0 Z " fill="#17A8CA" transform="translate(211,144)"/>
<path d="M0 0 C2.53786081 0.37257957 3.70952365 0.66378566 5.4140625 2.63671875 C11.24897395 12.51842362 11.24897395 12.51842362 10.76171875 17.375 C9.85746687 20.49119108 8.4895884 22.31268323 6.4375 24.8125 C5.79683594 25.60269531 5.15617187 26.39289063 4.49609375 27.20703125 C4.00238281 27.79871094 3.50867188 28.39039063 3 29 C2.67 28.34 2.34 27.68 2 27 C2.33 26.01 2.66 25.02 3 24 C3.50809058 15.36246007 2.72447888 8.17343663 0 0 Z " fill="#3EB86D" transform="translate(91,121)"/>
<path d="M0 0 C3.33859839 1.43293825 5.31205088 3.20534497 7.75 5.875 C11.52745975 9.78026854 15.02635088 11.86843609 20 14 C20 14.33 20 14.66 20 15 C17.36 15 14.72 15 12 15 C12 15.66 12 16.32 12 17 C4.81176471 21.28529412 4.81176471 21.28529412 1 22 C-1.3347961 22.66152556 -3.66836622 23.32741333 -6 24 C-1.35292803 19.07128731 3.74332841 14.7529355 10 12 C9.0925 11.319375 8.185 10.63875 7.25 9.9375 C3.77393779 7.07098424 2.03435118 3.99045809 0 0 Z " fill="#039537" transform="translate(37,94)"/>
<path d="M0 0 C-1.98 0.99 -3.96 1.98 -6 3 C-4.35 3 -2.7 3 -1 3 C-1.33 3.99 -1.66 4.98 -2 6 C-3.11375 5.95875 -4.2275 5.9175 -5.375 5.875 C-8.70607116 5.86325019 -11.68803891 6.27789753 -14.9375 7 C-22.36086789 8.58910016 -28.65206849 8.26116076 -35.9921875 6.4453125 C-38.37440074 5.9169617 -40.56856286 5.85697429 -43 6 C-43.99 6 -44.98 6 -46 6 C-43.66871954 3.66871954 -42.87264254 3.63904403 -39.6875 3.3125 C-38.92824219 3.22613281 -38.16898438 3.13976562 -37.38671875 3.05078125 C-34.77040936 2.99511509 -32.55940304 3.4719304 -30 4 C-21.19115791 4.60034048 -12.76918872 4.21349204 -4.91015625 -0.1640625 C-3 -1 -3 -1 0 0 Z " fill="#14A7CA" transform="translate(185,114)"/>
<path d="M0 0 C1.52352768 2.93823196 2.78534783 5.92254092 4 9 C3.2059375 9.70125 2.411875 10.4025 1.59375 11.125 C-4.17568638 16.06238045 -4.17568638 16.06238045 -7.73046875 22.51171875 C-7.75007371 24.89610603 -7.75007371 24.89610603 -7 28 C-7.66 27.67 -8.32 27.34 -9 27 C-10.07650909 14.83373858 -10.07650909 14.83373858 -7.51171875 10.46484375 C-6.28105586 9.14245444 -5.00803043 7.85792252 -3.69140625 6.62109375 C-1.6373321 4.65240836 -0.76608813 2.7238689 0 0 Z " fill="#70CA92" transform="translate(36,143)"/>
<path d="M0 0 C0 5.52064379 -3.10008499 9.92449182 -6.5625 14.0625 C-11.98191684 20.59359209 -12.5677124 26.75672271 -13 35 C-13.33 35 -13.66 35 -14 35 C-14.6226718 23.15193928 -13.83997747 14.07092854 -5.875 4.875 C-2.41750842 1.20875421 -2.41750842 1.20875421 0 0 Z " fill="#2FA8CB" transform="translate(130,47)"/>
<path d="M0 0 C0.66 0.99 1.32 1.98 2 3 C0.85737772 7.55750477 -1.13949767 11.8179371 -3 16.125 C-3.515625 17.32382813 -4.03125 18.52265625 -4.5625 19.7578125 C-5.65048624 22.21169452 -6.76711112 24.61720515 -8 27 C-8.33 26.34 -8.66 25.68 -9 25 C-9.66 25.33 -10.32 25.66 -11 26 C-9.35487901 19.71376532 -7.23098065 14.06773611 -4.18359375 8.32421875 C-2.93879409 5.96710021 -2.93879409 5.96710021 -1.91015625 3.26953125 C-1 1 -1 1 0 0 Z " fill="#20ABC8" transform="translate(91,152)"/>
<path d="M0 0 C1.32 0.33 2.64 0.66 4 1 C3.49210937 1.3403125 2.98421875 1.680625 2.4609375 2.03125 C-4.53584521 6.95782359 -9.06541628 12.0933408 -12 20.1875 C-13.75430028 25.01182576 -15.78794166 27.12814204 -20 30 C-18.66778753 20.56933805 -11.91280256 9.47931998 -4.875 3.0625 C-3 2 -3 2 0 2 C0 1.34 0 0.68 0 0 Z " fill="#2BB15D" transform="translate(49,109)"/>
<path d="M0 0 C6.27325315 2.84256783 12.32844353 8.18670226 16 14 C16.25 16.8125 16.25 16.8125 16 19 C14.02 19.99 14.02 19.99 12 21 C11.46890625 19.98679688 10.9378125 18.97359375 10.390625 17.9296875 C9.67725306 16.57803541 8.96370183 15.22647793 8.25 13.875 C7.90195313 13.20984375 7.55390625 12.5446875 7.1953125 11.859375 C5.0094569 7.73053664 2.6576606 3.84283357 0 0 Z " fill="#5BC386" transform="translate(92,115)"/>
<path d="M0 0 C4.4422279 0.50768319 6.6253835 2.15821768 10 5 C13.68660697 6.22886899 17.10062975 6.14560987 20.9375 6.125 C22.01161133 6.13080078 22.01161133 6.13080078 23.10742188 6.13671875 C27.26503709 6.13193971 27.26503709 6.13193971 31.31640625 5.3046875 C31.87199219 5.20414062 32.42757812 5.10359375 33 5 C34.75 6.4375 34.75 6.4375 36 8 C27.12009064 10.40811101 18.03361446 11.09111446 9 9 C9 8.34 9 7.68 9 7 C7.24040598 5.70866161 7.24040598 5.70866161 5.0625 4.5 C1.10545906 2.21091811 1.10545906 2.21091811 0 0 Z " fill="#13AA47" transform="translate(46,101)"/>
<path d="M0 0 C9.24 0 18.48 0 28 0 C28 1.32 28 2.64 28 4 C23.89596637 4.08694042 19.79216871 4.14037149 15.6875 4.1875 C13.93663086 4.22520508 13.93663086 4.22520508 12.15039062 4.26367188 C11.03212891 4.27333984 9.91386719 4.28300781 8.76171875 4.29296875 C7.73006592 4.3086792 6.69841309 4.32438965 5.63549805 4.34057617 C3 4 3 4 1.13989258 2.54418945 C0 1 0 1 0 0 Z " fill="#DEF2E6" transform="translate(51,178)"/>
<path d="M0 0 C4.56291805 4.56291805 3.23493703 13.81364669 3.2578125 19.98144531 C3.1627606 26.31130764 2.66738859 33.33261141 -2 38 C-1.76228882 36.74968994 -1.76228882 36.74968994 -1.51977539 35.47412109 C-0.96414096 31.76032217 -0.78868817 28.16743453 -0.68359375 24.4140625 C-0.66281265 23.71227875 -0.64203156 23.010495 -0.62062073 22.28744507 C-0.55573676 20.06672042 -0.4965277 17.84588724 -0.4375 15.625 C-0.39425646 14.11066629 -0.3506404 12.59634317 -0.30664062 11.08203125 C-0.20011914 7.38813345 -0.09868323 3.69411646 0 0 Z " fill="#45B0D0" transform="translate(204,56)"/>
<path d="M0 0 C1.875 0.8125 1.875 0.8125 2.875 2.8125 C2.94496014 4.51952735 2.95940154 6.22918003 2.9375 7.9375 C2.92847656 8.84757813 2.91945313 9.75765625 2.91015625 10.6953125 C2.89855469 11.39398438 2.88695312 12.09265625 2.875 12.8125 C-0.14302393 12.48622714 -1.72191281 12.20168764 -3.9375 10.0625 C-5.36640286 7.35510511 -5.58965448 5.83275413 -5.125 2.8125 C-3.52360807 0.41041211 -2.92220745 -0.25784183 0 0 Z " fill="#B1E1D0" transform="translate(18.125,154.1875)"/>
<path d="M0 0 C2 1 2 1 2.8515625 2.96875 C5.76379926 12.49970667 6.09577845 20.70760147 2 30 C0.46505729 32.21548365 -0.80089927 33.35067445 -3 35 C-3.99 35 -4.98 35 -6 35 C-5.21448343 33.68381002 -4.4213763 32.37214772 -3.625 31.0625 C-3.18414062 30.33160156 -2.74328125 29.60070312 -2.2890625 28.84765625 C-1 27 -1 27 1 26 C2.22942897 22.66186691 2.13358474 19.33653743 2.125 15.8125 C2.12757812 14.74644531 2.13015625 13.68039063 2.1328125 12.58203125 C2.29258972 10.06930652 2.29258972 10.06930652 1 9 C0.76807135 7.48530552 0.58784762 5.96245438 0.4375 4.4375 C0.35371094 3.61121094 0.26992187 2.78492187 0.18359375 1.93359375 C0.12300781 1.29550781 0.06242187 0.65742187 0 0 Z " fill="#42B157" transform="translate(89,67)"/>
<path d="M0 0 C0.66 0.33 1.32 0.66 2 1 C-1.465 3.97 -1.465 3.97 -5 7 C-3.38262276 3.76524552 -2.52370777 2.29427979 0 0 Z M-8 6 C-7.01 6.33 -6.02 6.66 -5 7 C-5.61488281 7.90492188 -5.61488281 7.90492188 -6.2421875 8.828125 C-7.05042969 10.02695313 -7.05042969 10.02695313 -7.875 11.25 C-8.40867187 12.03890625 -8.94234375 12.8278125 -9.4921875 13.640625 C-11.02404899 15.9274578 -11.02404899 15.9274578 -12.0625 18.25 C-13 20 -13 20 -15.125 20.75 C-16.053125 20.87375 -16.053125 20.87375 -17 21 C-16.46512323 16.81013196 -15.1610304 14.49994696 -12.5 11.25 C-11.55640625 10.08210937 -11.55640625 10.08210937 -10.59375 8.890625 C-9.75936615 7.9008167 -8.9154007 6.9154007 -8 6 Z " fill="#10A5C9" transform="translate(129,124)"/>
<path d="M0 0 C0.88365234 -0.00128906 1.76730469 -0.00257812 2.67773438 -0.00390625 C3.59748047 -0.00003906 4.51722656 0.00382812 5.46484375 0.0078125 C6.38845703 0.00394531 7.31207031 0.00007813 8.26367188 -0.00390625 C9.5872168 -0.00197266 9.5872168 -0.00197266 10.9375 0 C11.74582275 0.00112793 12.55414551 0.00225586 13.38696289 0.00341797 C15.40234375 0.1328125 15.40234375 0.1328125 17.40234375 1.1328125 C17.40234375 1.7928125 17.40234375 2.4528125 17.40234375 3.1328125 C8.82234375 3.1328125 0.24234375 3.1328125 -8.59765625 3.1328125 C-6.8164706 -0.4295588 -3.56919288 0.00497349 0 0 Z " fill="#EDF7FA" transform="translate(156.59765625,32.8671875)"/>
<path d="M0 0 C0.33 0 0.66 0 1 0 C0.855625 1.2375 0.71125 2.475 0.5625 3.75 C-0.07833262 9.49002931 -0.5421622 15.24293318 -1 21 C-0.34 21 0.32 21 1 21 C1.69699552 22.45381897 2.38233866 23.91322953 3.0625 25.375 C3.44535156 26.18710938 3.82820313 26.99921875 4.22265625 27.8359375 C4.47917969 28.55007812 4.73570313 29.26421875 5 30 C4.67 30.66 4.34 31.32 4 32 C0.28205933 28.66667388 -2.62245171 25.13685167 -3.23901367 20.01416016 C-3.29393091 17.8766121 -3.26284884 15.76181587 -3.1875 13.625 C-3.17396484 12.88894531 -3.16042969 12.15289062 -3.14648438 11.39453125 C-3.11144869 9.59603257 -3.05765288 7.79791578 -3 6 C-2.34 6 -1.68 6 -1 6 C-0.67 4.02 -0.34 2.04 0 0 Z " fill="#4EB75C" transform="translate(41,69)"/>
<path d="M0 0 C3.08404808 0.11020857 6.16691192 0.24075814 9.25 0.375 C10.55904297 0.42140625 10.55904297 0.42140625 11.89453125 0.46875 C13.16103516 0.52675781 13.16103516 0.52675781 14.453125 0.5859375 C15.22817383 0.6173584 16.00322266 0.6487793 16.80175781 0.68115234 C19.20865742 1.03026506 20.89602295 1.80551104 23 3 C23 3.33 23 3.66 23 4 C22.44127197 3.97905273 21.88254395 3.95810547 21.30688477 3.93652344 C18.72561327 3.85233706 16.14463176 3.80102307 13.5625 3.75 C12.68400391 3.71648438 11.80550781 3.68296875 10.90039062 3.6484375 C5.05478032 3.56215543 0.97107644 4.48191918 -4.20727539 7.23144531 C-4.79887451 7.48506836 -5.39047363 7.73869141 -6 8 C-6.66 7.67 -7.32 7.34 -8 7 C-7.4225 6.66226563 -6.845 6.32453125 -6.25 5.9765625 C-5.5075 5.53054687 -4.765 5.08453125 -4 4.625 C-3.2575 4.18414062 -2.515 3.74328125 -1.75 3.2890625 C-1.1725 2.86367188 -0.595 2.43828125 0 2 C0 1.34 0 0.68 0 0 Z M-9 8 C-8.67 8.66 -8.34 9.32 -8 10 C-8.66 9.67 -9.32 9.34 -10 9 C-9.67 8.67 -9.34 8.34 -9 8 Z " fill="#038820" transform="translate(54,47)"/>
<path d="M0 0 C0.33 0 0.66 0 1 0 C1.78422205 12.09444666 0.09603253 19.43052723 -7.8125 28.625 C-8.86441583 29.75990279 -9.92300732 30.88886634 -11 32 C-11.33 31.01 -11.66 30.02 -12 29 C-11.01 28.67 -10.02 28.34 -9 28 C-7.9095876 26.17971443 -7.9095876 26.17971443 -7 24 C-6.58621094 23.30003906 -6.17242187 22.60007812 -5.74609375 21.87890625 C-2.28658545 15.75506021 -1.36960554 10.59828374 -1.140625 3.58984375 C-1 1 -1 1 0 0 Z " fill="#059837" transform="translate(97,73)"/>
<path d="M0 0 C1 2 1 2 0.3125 4.375 C-1.10916729 7.21833459 -2.57792728 8.95637614 -5 11 C-5.66 11 -6.32 11 -7 11 C-7 11.66 -7 12.32 -7 13 C-13.49290698 15.67354993 -18.93320202 17.75715693 -26 17 C-26.99 16.34 -27.98 15.68 -29 15 C-28.01 14.90203125 -27.02 14.8040625 -26 14.703125 C-18.70388084 13.90794037 -12.21935605 13.18610503 -6 9 C-4.1375562 6.59141286 -4.1375562 6.59141286 -3 4 C-2.01755155 2.65368175 -1.02323436 1.31558703 0 0 Z " fill="#BDE6F1" transform="translate(186,101)"/>
<path d="M0 0 C0.85464844 -0.01417969 1.70929688 -0.02835938 2.58984375 -0.04296875 C5.20159303 0.20046444 6.81750652 0.8696732 9.0625 2.1875 C8.7325 2.8475 8.4025 3.5075 8.0625 4.1875 C1.4625 4.1875 -5.1375 4.1875 -11.9375 4.1875 C-7.55997531 0.90435648 -5.2790757 0.0396923 0 0 Z " fill="#E4F3E8" transform="translate(66.9375,50.8125)"/>
<path d="M0 0 C1 2 1 2 0.0625 5.125 C-0.288125 6.07375 -0.63875 7.0225 -1 8 C-1.66 8 -2.32 8 -3 8 C-2.88553728 10.56336254 -2.75880499 13.12513445 -2.625 15.6875 C-2.5940625 16.40873047 -2.563125 17.12996094 -2.53125 17.87304688 C-2.30664413 21.97210394 -1.82259091 25.24368459 0 29 C-1.9375 28.375 -1.9375 28.375 -4 27 C-5.16532532 22.2221662 -5.11988381 17.50703776 -5.0625 12.625 C-5.05798828 11.88894531 -5.05347656 11.15289062 -5.04882812 10.39453125 C-5.03715142 8.59631842 -5.01922011 6.79814803 -5 5 C-4.01 4.67 -3.02 4.34 -2 4 C-0.79117904 1.99983534 -0.79117904 1.99983534 0 0 Z " fill="#25A33B" transform="translate(41,67)"/>
<path d="M0 0 C0.33 0 0.66 0 1 0 C1.44844606 9.23051476 1.68506431 17.67970185 -3 26 C-3.99 26.66 -4.98 27.32 -6 28 C-5.52607967 25.31445148 -4.95302957 22.87376696 -4 20.3125 C-2.89721601 16.65952804 -2.60023343 13.26712363 -2.28515625 9.48046875 C-1.90245188 6.15146496 -1.03717798 3.18067914 0 0 Z " fill="#5DBCD7" transform="translate(203,73)"/>
<path d="M0 0 C1.35999009 3.68402378 0.59950076 5.69086023 -0.875 9.25 C-2.69908745 13.93601777 -3.62257998 17.99918469 -4 23 C-4.66 23 -5.32 23 -6 23 C-6.55353075 9.18223235 -6.55353075 9.18223235 -3 4 C-2.34 4 -1.68 4 -1 4 C-0.67 2.68 -0.34 1.36 0 0 Z " fill="#0B9DC4" transform="translate(120,53)"/>
<path d="M0 0 C0.33 0 0.66 0 1 0 C1.1806681 5.23937497 1.00693502 9.0830092 -1 14 C-1.30292969 14.75925781 -1.60585937 15.51851562 -1.91796875 16.30078125 C-4.59395695 22.72930464 -4.59395695 22.72930464 -8 25 C-8 23.68 -8 22.36 -8 21 C-7.34 21 -6.68 21 -6 21 C-5.87625 20.49726562 -5.7525 19.99453125 -5.625 19.4765625 C-4.77365276 16.10309905 -3.88923344 12.73862213 -3 9.375 C-2.73316406 8.3540625 -2.73316406 8.3540625 -2.4609375 7.3125 C-1.11495536 2.22991071 -1.11495536 2.22991071 0 0 Z " fill="#73C6DE" transform="translate(200,82)"/>
<path d="M0 0 C1.18771723 3.42943519 0.80226223 5.37784675 -0.4375 8.75 C-0.86869141 9.94882813 -0.86869141 9.94882813 -1.30859375 11.171875 C-1.53675781 11.77515625 -1.76492187 12.3784375 -2 13 C-1.34 13 -0.68 13 0 13 C0.33 11.02 0.66 9.04 1 7 C2.01498547 10.17459631 1.94466465 12.30877671 1.22265625 15.546875 C1.03896484 16.39121094 0.85527344 17.23554688 0.66601562 18.10546875 C0.46685547 18.97816406 0.26769531 19.85085937 0.0625 20.75 C-0.13279297 21.63816406 -0.32808594 22.52632812 -0.52929688 23.44140625 C-1.01161712 25.62949322 -1.50209032 27.8154173 -2 30 C-2.33 30 -2.66 30 -3 30 C-2.98839844 29.24074219 -2.97679688 28.48148438 -2.96484375 27.69921875 C-2.95582031 26.70535156 -2.94679688 25.71148437 -2.9375 24.6875 C-2.92009766 23.20830078 -2.92009766 23.20830078 -2.90234375 21.69921875 C-2.87670138 18.90036151 -2.87670138 18.90036151 -4 16 C-3.34959454 10.5233975 -1.90394176 5.16784192 0 0 Z " fill="#28AECE" transform="translate(103,161)"/>
<path d="M0 0 C3 1 3 1 4.6875 4.25 C6.70564007 10.01010812 6.24770065 15.98179167 6 22 C5.34 22.33 4.68 22.66 4 23 C3.96261719 22.2265625 3.92523438 21.453125 3.88671875 20.65625 C3.47529223 14.13796319 2.51288858 9.00908139 0 3 C0 2.01 0 1.02 0 0 Z " fill="#029DC2" transform="translate(239,169)"/>
<path d="M0 0 C0.99 0.495 0.99 0.495 2 1 C3.82963411 1.20329268 5.66408368 1.36472196 7.5 1.5 C12.77777778 1.88888889 12.77777778 1.88888889 15 3 C15 3.66 15 4.32 15 5 C6.0899654 6.43598616 6.0899654 6.43598616 1.875 4.75 C1.25625 4.1725 0.6375 3.595 0 3 C0 2.01 0 1.02 0 0 Z M16 0 C16.66 0.33 17.32 0.66 18 1 C17.01 1.66 16.02 2.32 15 3 C15.33 2.01 15.66 1.02 16 0 Z " fill="#CBEBD7" transform="translate(58,116)"/>
<path d="M0 0 C0.33 0 0.66 0 1 0 C5.43586252 25.34778583 5.43586252 25.34778583 1.65625 32.56640625 C0 34.5 0 34.5 -3 37 C-3.66 36.67 -4.32 36.34 -5 36 C-5 35.01 -5 34.02 -5 33 C-2.5625 31.375 -2.5625 31.375 0 30 C1.2362196 28.98432095 1.2362196 28.98432095 1.1328125 26.875 C1.10839835 17.89059132 0.59458007 8.96117103 0 0 Z " fill="#2FB1D0" transform="translate(222,182)"/>
<path d="M0 0 C1.05767578 0.42925781 1.05767578 0.42925781 2.13671875 0.8671875 C5.01205232 2.00476831 7.90452186 3.07392356 10.8125 4.125 C11.78832031 4.47820312 12.76414062 4.83140625 13.76953125 5.1953125 C14.87361328 5.59363281 14.87361328 5.59363281 16 6 C16 6.99 16 7.98 16 9 C10.71398208 8.46061042 6.6287592 7.54127956 2 5 C0.5625 2.3125 0.5625 2.3125 0 0 Z " fill="#8ED5A9" transform="translate(31,172)"/>
<path d="M0 0 C1.28937579 3.81039414 0.92256398 7.27711874 0.625 11.25 C0.57609619 11.91588135 0.52719238 12.5817627 0.47680664 13.26782227 C0.12603806 17.86934475 -0.34748322 22.43238256 -1 27 C-1.66 27 -2.32 27 -3 27 C-3.63959391 7.27918782 -3.63959391 7.27918782 0 0 Z " fill="#61C17D" transform="translate(43,63)"/>
<path d="M0 0 C0.66 0.33 1.32 0.66 2 1 C2.33294729 10.35951838 1.36539584 15.96456249 -5 23 C-5.33 21.68 -5.66 20.36 -6 19 C-5.360625 18.773125 -4.72125 18.54625 -4.0625 18.3125 C-1.78613553 17.18536803 -1.78613553 17.18536803 -1.37109375 14.77734375 C-0.98494968 11.88736024 -0.93700694 9.16342892 -1 6.25 C-1.03742459 4.50040022 -1.04696295 2.74936974 -1 1 C-0.67 0.67 -0.34 0.34 0 0 Z " fill="#8ED5A4" transform="translate(85,81)"/>
<path d="M0 0 C2.62728858 0.61642534 5.25153582 1.24267787 7.875 1.875 C8.62136719 2.04902344 9.36773437 2.22304687 10.13671875 2.40234375 C15.7734375 3.7734375 15.7734375 3.7734375 18 6 C5.33029613 6.3690205 5.33029613 6.3690205 0 4 C0 2.68 0 1.36 0 0 Z " fill="#0F9DBF" transform="translate(116,221)"/>
<path d="M0 0 C4.2509777 1.98441658 7.8728367 4.47655706 11 8 C11.4375 10.875 11.4375 10.875 11 13 C10.01 13 9.02 13 8 13 C6.2109375 10.6640625 6.2109375 10.6640625 4.375 7.625 C3.76398438 6.62726563 3.15296875 5.62953125 2.5234375 4.6015625 C1.63945386 3.09199043 0.78233432 1.56466863 0 0 Z " fill="#7BCE9B" transform="translate(92,115)"/>
<path d="M0 0 C1.66666667 1.66666667 3.33333333 3.33333333 5 5 C5.86625 5.7115625 5.86625 5.7115625 6.75 6.4375 C8.60431006 8.75538758 8.67873538 11.1086184 9 14 C5.19224939 10.97110747 1.65454672 8.14109288 -1 4 C-0.75 1.6875 -0.75 1.6875 0 0 Z " fill="#0796B9" transform="translate(122,97)"/>
<path d="M0 0 C0.66 0.99 1.32 1.98 2 3 C-1.63 6.63 -5.26 10.26 -9 14 C-9.33 12.68 -9.66 11.36 -10 10 C-7.91015625 7.421875 -7.91015625 7.421875 -5.0625 4.75 C-4.12535156 3.85796875 -3.18820313 2.9659375 -2.22265625 2.046875 C-1.48917969 1.37140625 -0.75570312 0.6959375 0 0 Z " fill="#7DCF9B" transform="translate(38,149)"/>
<path d="M0 0 C0.33 0 0.66 0 1 0 C1.144375 1.134375 1.28875 2.26875 1.4375 3.4375 C1.61171478 6.80777201 1.61171478 6.80777201 3 8 C3.12619896 9.91352846 3.17580701 11.83235023 3.1875 13.75 C3.20167969 14.79671875 3.21585937 15.8434375 3.23046875 16.921875 C2.99844213 20.02080677 2.31055867 22.20276014 1 25 C0.67 25 0.34 25 0 25 C0 16.75 0 8.5 0 0 Z " fill="#5ABD72" transform="translate(89,69)"/>
<path d="M0 0 C0.66 0.33 1.32 0.66 2 1 C0.08031022 7.2923165 -1.63494972 10.18485314 -7 14 C-6.44010697 10.00987629 -5.24330232 7.4744948 -2.9375 4.1875 C-2.38964844 3.39730469 -1.84179688 2.60710937 -1.27734375 1.79296875 C-0.64505859 0.90544922 -0.64505859 0.90544922 0 0 Z " fill="#3AB769" transform="translate(36,125)"/>
<path d="M0 0 C4.4422279 0.50768319 6.6253835 2.15821768 10 5 C13.31544299 6.10514766 16.20410111 6.32107631 19.6875 6.5625 C21.45673828 6.68818359 21.45673828 6.68818359 23.26171875 6.81640625 C24.61716797 6.90728516 24.61716797 6.90728516 26 7 C26 7.33 26 7.66 26 8 C17.585 8.495 17.585 8.495 9 9 C9 8.34 9 7.68 9 7 C7.24040598 5.70866161 7.24040598 5.70866161 5.0625 4.5 C1.10545906 2.21091811 1.10545906 2.21091811 0 0 Z " fill="#48BD57" transform="translate(46,101)"/>
<path d="M0 0 C1.76184597 3.52369194 0.03590353 7.34457031 -1 11 C-1.8993004 13.40104476 -2.91165185 15.67489259 -4 18 C-4.66 18 -5.32 18 -6 18 C-2.74927954 2.74927954 -2.74927954 2.74927954 0 0 Z " fill="#09A3C7" transform="translate(107,156)"/>
<path d="M0 0 C2.875 0.3125 2.875 0.3125 6 1 C8.4294516 4.6441774 8.16179575 6.71241272 8 11 C7.71125 10.38125 7.4225 9.7625 7.125 9.125 C6.06279958 6.86674235 6.06279958 6.86674235 4 5 C0.91652174 4.83318891 0.91652174 4.83318891 -2 5 C-1.34 3.35 -0.68 1.7 0 0 Z " fill="#79CDA1" transform="translate(15,144)"/>
<path d="M0 0 C4.017951 4.017951 3.04787055 10.87255157 3.06591797 16.28076172 C3.06092779 19.52081047 3.03538685 22.76013766 3 26 C2.67 26 2.34 26 2 26 C0.6786742 17.2580141 -0.33165588 8.862582 0 0 Z " fill="#2EA4C9" transform="translate(204,56)"/>
<path d="M0 0 C0.33 0 0.66 0 1 0 C1 2.31 1 4.62 1 7 C1.99 6.67 2.98 6.34 4 6 C4.13277344 6.60328125 4.26554687 7.2065625 4.40234375 7.828125 C4.57894531 8.62734375 4.75554687 9.4265625 4.9375 10.25 C5.19853516 11.43335937 5.19853516 11.43335937 5.46484375 12.640625 C5.947556 14.76878703 6.46163178 16.88532842 7 19 C3.16331547 15.567177 1.09248897 13.06517613 0 8 C-0.14118093 5.30782565 -0.09309962 2.69988904 0 0 Z " fill="#78C8DF" transform="translate(123,84)"/>
<path d="M0 0 C0.99 0.33 1.98 0.66 3 1 C2.34 2.65 1.68 4.3 1 6 C1.66 6.33 2.32 6.66 3 7 C3 9.64 3 12.28 3 15 C1 14 1 14 -0.125 11.875 C-1.33435071 7.90141911 -1.90490982 3.80981964 0 0 Z " fill="#8ED5A5" transform="translate(45,82)"/>
<path d="M0 0 C0.33 0 0.66 0 1 0 C0.98839844 1.27617187 0.97679688 2.55234375 0.96484375 3.8671875 C0.95546583 5.53645687 0.94636563 7.20572783 0.9375 8.875 C0.92912109 9.71675781 0.92074219 10.55851563 0.91210938 11.42578125 C0.90727539 12.63427734 0.90727539 12.63427734 0.90234375 13.8671875 C0.89710693 14.61081543 0.89187012 15.35444336 0.88647461 16.12060547 C0.88213364 18.09132568 0.88213364 18.09132568 2 20 C1.01 19.67 0.02 19.34 -1 19 C-1 16.36 -1 13.72 -1 11 C-1.66 11 -2.32 11 -3 11 C-3.32434322 6.35108046 -2.776422 3.77593392 0 0 Z " fill="#19A9CB" transform="translate(99,193)"/>
<path d="M0 0 C4.07376031 1.61010527 6.76507069 4.53822271 9.75 7.625 C10.25660156 8.140625 10.76320312 8.65625 11.28515625 9.1875 C12.52803902 10.45383339 13.76465276 11.7263144 15 13 C14.67 13.66 14.34 14.32 14 15 C10.11731114 13.70577038 8.97264458 11.8075044 6.4375 8.625 C5.65246094 7.64789063 4.86742187 6.67078125 4.05859375 5.6640625 C2.63839386 3.82615676 1.28839378 1.93259067 0 0 Z " fill="#0188A8" transform="translate(210,128)"/>
<path d="M0 0 C3.85831534 0.26281278 5.62949694 0.66858671 8.5546875 3.28515625 C9.70324219 4.65994141 9.70324219 4.65994141 10.875 6.0625 C11.65617187 6.98160156 12.43734375 7.90070313 13.2421875 8.84765625 C13.82226562 9.55792969 14.40234375 10.26820312 15 11 C14.01 11.33 13.02 11.66 12 12 C11.63648437 11.54109375 11.27296875 11.0821875 10.8984375 10.609375 C7.5733959 6.5511191 4.45048913 3.7550647 0 1 C0 0.67 0 0.34 0 0 Z " fill="#23AF58" transform="translate(79,109)"/>
<path d="M0 0 C0.33 0.99 0.66 1.98 1 3 C0.01 3.495 0.01 3.495 -1 4 C-1.65772428 7.02934491 -1.65772428 7.02934491 -2 10 C-3.98 10.33 -5.96 10.66 -8 11 C-7.91433603 8.087425 -7.42089045 6.43201976 -5.375 4.33203125 C-3.61608625 2.83908228 -1.83686981 1.39563738 0 0 Z " fill="#CEEDD0" transform="translate(78,96)"/>
<path d="M0 0 C0.66 0.33 1.32 0.66 2 1 C0.73034469 2.43854058 -0.54077218 3.87579127 -1.8125 5.3125 C-2.52019531 6.11300781 -3.22789063 6.91351563 -3.95703125 7.73828125 C-8.58484349 12.8616145 -8.58484349 12.8616145 -12 14 C-10.60089587 9.47301364 -8.4384826 7.24844018 -4.875 4.1875 C-3.96492188 3.39730469 -3.05484375 2.60710937 -2.1171875 1.79296875 C-1.06917969 0.90544922 -1.06917969 0.90544922 0 0 Z " fill="#22ACCD" transform="translate(109,136)"/>
<path d="M0 0 C3.2111037 4.81665555 3.80335555 10.26921877 4 16 C3.03699869 18.75143233 2.06283483 19.87649356 0 22 C-0.33 21.34 -0.66 20.68 -1 20 C-0.505 18.515 -0.505 18.515 0 17 C0.07973476 15.66474283 0.10771338 14.32587917 0.09765625 12.98828125 C0.09443359 12.23095703 0.09121094 11.47363281 0.08789062 10.69335938 C0.07532227 9.51483398 0.07532227 9.51483398 0.0625 8.3125 C0.05798828 7.51521484 0.05347656 6.71792969 0.04882812 5.89648438 C0.0370585 3.93095743 0.01912348 1.96546915 0 0 Z " fill="#63C68E" transform="translate(94,128)"/>
<path d="M0 0 C0.88467285 3.0134169 1.07982034 5.61705153 1 8.75 C0.94633048 13.27165665 1.33775437 17.52984201 2 22 C-2.07248146 17.57338971 -2.01834641 12.50122223 -2.1875 6.75 C-2 3 -2 3 0 0 Z " fill="#53B7D5" transform="translate(121,75)"/>
<path d="M0 0 C0 0.33 0 0.66 0 1 C-0.76183594 1.01417969 -1.52367188 1.02835938 -2.30859375 1.04296875 C-9.77898923 1.3880432 -14.82907965 2.79434091 -21 7 C-21.99 7.66 -22.98 8.32 -24 9 C-24 7.68 -24 6.36 -24 5 C-15.84212711 0.42243606 -9.30006424 -0.66534641 0 0 Z " fill="#249D40" transform="translate(70,50)"/>
<path d="M0 0 C2.34917898 2.15341406 3.82443004 4.21667937 5.25 7.0625 C5.60578125 7.75472656 5.9615625 8.44695312 6.328125 9.16015625 C6.54984375 9.76730469 6.7715625 10.37445313 7 11 C6.67 11.66 6.34 12.32 6 13 C3 12 3 12 1.3125 8.75 C0.16055679 5.45873369 -0.31025348 3.4127883 0 0 Z " fill="#058DAD" transform="translate(235,157)"/>
<path d="M0 0 C1.46300982 0.93018526 2.92025579 1.86944027 4.375 2.8125 C5.18710938 3.33457031 5.99921875 3.85664063 6.8359375 4.39453125 C9 6 9 6 11 9 C9.02 9.99 9.02 9.99 7 11 C5.82750647 9.54634731 4.66216184 8.08692581 3.5 6.625 C2.52546875 5.40683594 2.52546875 5.40683594 1.53125 4.1640625 C0 2 0 2 0 0 Z " fill="#A1DBE9" transform="translate(202,128)"/>
<path d="M0 0 C0.33 0 0.66 0 1 0 C1 4.29 1 8.58 1 13 C1.66 13 2.32 13 3 13 C3.1953125 19.0546875 3.1953125 19.0546875 3 21 C2.34 21.66 1.68 22.32 1 23 C-0.23402862 18.22907044 -0.11265112 13.57530554 -0.0625 8.6875 C-0.05798828 7.85154297 -0.05347656 7.01558594 -0.04882812 6.15429688 C-0.03710548 4.10283351 -0.01917203 2.05140727 0 0 Z " fill="#007B99" transform="translate(113,63)"/>
<path d="M0 0 C0.99 0.33 1.98 0.66 3 1 C-2.59814306 4.73209538 -8.45532538 5.27269478 -15 5 C-13.18901618 2.69623147 -12.27162488 2.04858979 -9.3359375 1.5234375 C-8.35882813 1.47445312 -7.38171875 1.42546875 -6.375 1.375 C-2.87540099 1.47545725 -2.87540099 1.47545725 0 0 Z " fill="#0089A9" transform="translate(198,225)"/>
<path d="M0 0 C0.33 0.66 0.66 1.32 1 2 C-4.21758306 11.11643634 -4.21758306 11.11643634 -8.625 13.125 C-11.92532837 13.98064069 -12.91274766 13.95718304 -16 13 C-15.34773438 12.731875 -14.69546875 12.46375 -14.0234375 12.1875 C-7.46283522 9.24587302 -3.74543803 6.13581921 0 0 Z " fill="#69C86E" transform="translate(87,94)"/>
<path d="M0 0 C0.66 0 1.32 0 2 0 C2.33 2.31 2.66 4.62 3 7 C3.99 7.33 4.98 7.66 6 8 C8.1875 9.9375 8.1875 9.9375 10 12 C10 12.66 10 13.32 10 14 C10.66 14.33 11.32 14.66 12 15 C10.68 15 9.36 15 8 15 C5 11.78571429 5 11.78571429 5 9 C4.01 8.67 3.02 8.34 2 8 C0.04457812 5.01540871 0 3.73585209 0 0 Z " fill="#8ED2E5" transform="translate(128,95)"/>
<path d="M0 0 C2.97 1.32 5.94 2.64 9 4 C9 4.33 9 4.66 9 5 C6.36 5 3.72 5 1 5 C1 5.66 1 6.32 1 7 C0.01 7 -0.98 7 -2 7 C-1.34 4.69 -0.68 2.38 0 0 Z " fill="#07A440" transform="translate(48,104)"/>
<path d="M0 0 C3.44654711 0.71307871 6.01968843 1.63936688 8.16796875 4.62109375 C11 9.66666667 11 9.66666667 11 13 C7.68989389 9.86881855 5.27514924 6.92980322 3 3 C1.41754725 1.24850835 1.41754725 1.24850835 0 0 Z " fill="#209D3C" transform="translate(81,55)"/>
<path d="M0 0 C-0.639375 0.28875 -1.27875 0.5775 -1.9375 0.875 C-4.15206079 1.82823451 -4.15206079 1.82823451 -5 4 C-6.97888961 4.72693904 -8.97954558 5.39816251 -11 6 C-11.33 5.34 -11.66 4.68 -12 4 C-12.66 3.67 -13.32 3.34 -14 3 C-4.58997722 -0.44419134 -4.58997722 -0.44419134 0 0 Z " fill="#0081A1" transform="translate(156,25)"/>
<path d="M0 0 C0.33 0 0.66 0 1 0 C0.85950482 1.47968324 0.71245174 2.95874516 0.5625 4.4375 C0.48128906 5.26121094 0.40007813 6.08492188 0.31640625 6.93359375 C0 9 0 9 -1 10 C-1.23427778 12.01594582 -1.41336124 14.038474 -1.5625 16.0625 C-1.64628906 17.16722656 -1.73007812 18.27195312 -1.81640625 19.41015625 C-1.87699219 20.26480469 -1.93757813 21.11945313 -2 22 C-2.33 22 -2.66 22 -3 22 C-3 16.72 -3 11.44 -3 6 C-2.34 6 -1.68 6 -1 6 C-0.67 4.02 -0.34 2.04 0 0 Z " fill="#43B25D" transform="translate(41,69)"/>
<path d="M0 0 C4.38081466 4.02561348 7.78693637 7.73302438 8.1875 13.875 C8.125625 14.57625 8.06375 15.2775 8 16 C5.17039004 12.63141671 3.71424879 9.02475802 2 5 C1.34 4.34 0.68 3.68 0 3 C0 2.01 0 1.02 0 0 Z " fill="#12942A" transform="translate(88,58)"/>
<path d="M0 0 C0.99 0 1.98 0 3 0 C2.42415568 2.38564077 1.77772405 4.66682784 1 7 C0.01 7.495 0.01 7.495 -1 8 C-1.72159424 9.64363134 -2.39351421 11.31050386 -3 13 C-3.93045933 10.44855176 -4.08564091 9.25993522 -3.22265625 6.640625 C-2.83980469 5.85171875 -2.45695312 5.0628125 -2.0625 4.25 C-1.68222656 3.45078125 -1.30195312 2.6515625 -0.91015625 1.828125 C-0.60980469 1.22484375 -0.30945313 0.6215625 0 0 Z " fill="#0084A4" transform="translate(118,50)"/>
<path d="M0 0 C7.625 0.875 7.625 0.875 11 2 C11 2.66 11 3.32 11 4 C3.51234156 4.3682455 3.51234156 4.3682455 1 2.5625 C0 1 0 1 0 0 Z " fill="#CFEDDA" transform="translate(51,178)"/>
<path d="M0 0 C0.66 0.99 1.32 1.98 2 3 C1.21718695 4.33855056 0.42348123 5.67073644 -0.375 7 C-0.81585938 7.7425 -1.25671875 8.485 -1.7109375 9.25 C-2.13632813 9.8275 -2.56171875 10.405 -3 11 C-3.66 11 -4.32 11 -5 11 C-4.46884894 6.48521602 -2.63379708 3.65333143 0 0 Z " fill="#10A5C3" transform="translate(97,144)"/>
<path d="M0 0 C5.01113235 1.4317521 6.94469549 3.98445693 10 8 C8.68 8.99 7.36 9.98 6 11 C5.62875 9.948125 5.62875 9.948125 5.25 8.875 C3.83911974 5.62997541 2.02104602 2.89683263 0 0 Z " fill="#21AD5D" transform="translate(102,122)"/>
<path d="M0 0 C1 2 1 2 0.0625 5.125 C-0.288125 6.07375 -0.63875 7.0225 -1 8 C-1.66 8 -2.32 8 -3 8 C-3 11.63 -3 15.26 -3 19 C-3.33 19 -3.66 19 -4 19 C-4.68912276 6.0980905 -4.68912276 6.0980905 -2 2.1875 C-1.34 1.465625 -0.68 0.74375 0 0 Z " fill="#33A94D" transform="translate(41,67)"/>
<path d="M0 0 C0.99 0 1.98 0 3 0 C3 2.31 3 4.62 3 7 C1.68 7 0.36 7 -1 7 C-1.625 4.625 -1.625 4.625 -2 2 C-1.34 1.34 -0.68 0.68 0 0 Z " fill="#CAEAE5" transform="translate(17,159)"/>
<path d="M0 0 C2 1.5625 2 1.5625 4 4 C4.25 7.75 4.25 7.75 4 11 C1.99006295 8.99006295 1.10059081 7.40788768 -0.125 4.875 C-0.47820312 4.15054688 -0.83140625 3.42609375 -1.1953125 2.6796875 C-1.46085938 2.12539062 -1.72640625 1.57109375 -2 1 C-1.34 0.67 -0.68 0.34 0 0 Z " fill="#0F9CBE" transform="translate(231,151)"/>
<path d="M0 0 C0.66 0.66 1.32 1.32 2 2 C1 3 1 3 -1.31665039 3.11352539 C-2.31688232 3.10828857 -3.31711426 3.10305176 -4.34765625 3.09765625 C-5.42724609 3.09443359 -6.50683594 3.09121094 -7.61914062 3.08789062 C-8.75544922 3.07951172 -9.89175781 3.07113281 -11.0625 3.0625 C-12.20267578 3.05798828 -13.34285156 3.05347656 -14.51757812 3.04882812 C-17.34510351 3.03699747 -20.1725264 3.0205141 -23 3 C-23 2.67 -23 2.34 -23 2 C-22.00818726 1.96241577 -22.00818726 1.96241577 -20.99633789 1.92407227 C-18.01817695 1.80846898 -15.0403608 1.68558246 -12.0625 1.5625 C-10.50112305 1.50352539 -10.50112305 1.50352539 -8.90820312 1.44335938 C-7.42416992 1.38051758 -7.42416992 1.38051758 -5.91015625 1.31640625 C-4.53549194 1.26141968 -4.53549194 1.26141968 -3.13305664 1.20532227 C-1.0179272 1.22996136 -1.0179272 1.22996136 0 0 Z " fill="#D9EFE0" transform="translate(76,53)"/>
<path d="M0 0 C-0.33 0.66 -0.66 1.32 -1 2 C-2.2065625 1.9690625 -2.2065625 1.9690625 -3.4375 1.9375 C-5.93354885 1.70366379 -5.93354885 1.70366379 -7 3 C-8.51928038 3.07179964 -10.04167482 3.08392007 -11.5625 3.0625 C-12.38878906 3.05347656 -13.21507812 3.04445312 -14.06640625 3.03515625 C-14.70449219 3.02355469 -15.34257812 3.01195312 -16 3 C-12.999111 1.34602165 -10.23161567 0.47881326 -6.875 -0.1875 C-5.57175781 -0.45626953 -5.57175781 -0.45626953 -4.2421875 -0.73046875 C-2 -1 -2 -1 0 0 Z " fill="#1EABCC" transform="translate(204,224)"/>
<path d="M0 0 C1.98 0.99 1.98 0.99 4 2 C4 2.66 4 3.32 4 4 C4.99 3.67 5.98 3.34 7 3 C7.33 4.98 7.66 6.96 8 9 C4.20620942 7.50958227 2.31656242 5.30937488 0 2 C0 1.34 0 0.68 0 0 Z " fill="#A6DEAB" transform="translate(48,97)"/>
<path d="M0 0 C1 3 1 3 0.00390625 5.48046875 C-0.47175781 6.37378906 -0.94742187 7.26710937 -1.4375 8.1875 C-1.91058594 9.08855469 -2.38367188 9.98960937 -2.87109375 10.91796875 C-3.24363281 11.60503906 -3.61617187 12.29210937 -4 13 C-4.66 13 -5.32 13 -6 13 C-4.58707905 8.1725201 -2.57025846 4.2837641 0 0 Z " fill="#038735" transform="translate(18,132)"/>
<path d="M0 0 C3.63 0 7.26 0 11 0 C11 0.66 11 1.32 11 2 C12.98 2 14.96 2 17 2 C17 2.33 17 2.66 17 3 C10.9981863 3.21824777 5.80766296 2.5056904 0 1 C0 0.67 0 0.34 0 0 Z " fill="#007F9D" transform="translate(125,227)"/>
<path d="M0 0 C0.66 0 1.32 0 2 0 C2.335939 1.4577353 2.66866624 2.91621106 3 4.375 C3.185625 5.18710938 3.37125 5.99921875 3.5625 6.8359375 C4 9 4 9 4 11 C3.01 10.67 2.02 10.34 1 10 C0.67 6.7 0.34 3.4 0 0 Z " fill="#09A3C7" transform="translate(222,178)"/>
<path d="M0 0 C0.99 0.33 1.98 0.66 3 1 C-0.44615385 6.78461538 -0.44615385 6.78461538 -3.25 7.875 C-3.8275 7.91625 -4.405 7.9575 -5 8 C-3.62845496 5.04590299 -2.01136276 2.55991624 0 0 Z " fill="#2AB160" transform="translate(24,126)"/>
<path d="M0 0 C-0.33 0.99 -0.66 1.98 -1 3 C-3.97 2.01 -6.94 1.02 -10 0 C-10 -0.33 -10 -0.66 -10 -1 C-5.94568308 -2.15837626 -3.78187881 -1.83691257 0 0 Z " fill="#229A3D" transform="translate(82,52)"/>
<path d="M0 0 C1.625 1 1.625 1 3 3 C2.65009645 5.8158905 1.84980278 8.2716858 1 11 C0.67 9.68 0.34 8.36 0 7 C-0.66 7 -1.32 7 -2 7 C-1.34 4.69 -0.68 2.38 0 0 Z " fill="#22ACCD" transform="translate(107,151)"/>
<path d="M0 0 C0 3.57575896 -1.08840607 5.05295935 -3 8 C-3.99 7.67 -4.98 7.34 -6 7 C-4.60667426 3.63279613 -3.0210714 2.0140476 0 0 Z " fill="#83D1A1" transform="translate(36,117)"/>
<path d="M0 0 C0.33 1.32 0.66 2.64 1 4 C-1.3125 5.5625 -1.3125 5.5625 -4 7 C-4.99 6.67 -5.98 6.34 -7 6 C-4.69 4.02 -2.38 2.04 0 0 Z " fill="#80CCE2" transform="translate(191,104)"/>
<path d="M0 0 C0 4.38968456 -2.12805101 5.76905739 -5 9 C-5.33 7.68 -5.66 6.36 -6 5 C-4.68 4.34 -3.36 3.68 -2 3 C-2 2.34 -2 1.68 -2 1 C-1.34 0.67 -0.68 0.34 0 0 Z " fill="#95D79C" transform="translate(85,95)"/>
<path d="M0 0 C1 2 1 2 0.44140625 3.9453125 C0.15136719 4.66460937 -0.13867188 5.38390625 -0.4375 6.125 C-0.72496094 6.84945312 -1.01242188 7.57390625 -1.30859375 8.3203125 C-1.53675781 8.87460938 -1.76492187 9.42890625 -2 10 C-2.66 10 -3.32 10 -4 10 C-4 8.35 -4 6.7 -4 5 C-3.01 4.67 -2.02 4.34 -1 4 C-0.26676204 1.98491642 -0.26676204 1.98491642 0 0 Z " fill="#BAE5BF" transform="translate(80,95)"/>
<path d="M0 0 C0.66 0.33 1.32 0.66 2 1 C-0.31 4.63 -2.62 8.26 -5 12 C-5.33 10.68 -5.66 9.36 -6 8 C-4.75 6.5625 -4.75 6.5625 -3 5 C-1.96642853 3.35394174 -0.95939668 1.69036558 0 0 Z " fill="#219E3E" transform="translate(44,59)"/>
<path d="M0 0 C0.33 0 0.66 0 1 0 C1.25 3.3125 1.25 3.3125 1 7 C-0.875 8.9375 -0.875 8.9375 -3 10 C-3.66 10 -4.32 10 -5 10 C-3.84826645 7.53199953 -2.95216435 5.95216435 -1 4 C-0.3574765 1.93125966 -0.3574765 1.93125966 0 0 Z " fill="#008DAF" transform="translate(227,207)"/>
<path d="M0 0 C0.66 0.66 1.32 1.32 2 2 C0.02 4.64 -1.96 7.28 -4 10 C-4.33 9.01 -4.66 8.02 -5 7 C-4.00390625 5.17578125 -4.00390625 5.17578125 -2.5625 3.3125 C-2.08941406 2.68988281 -1.61632813 2.06726563 -1.12890625 1.42578125 C-0.75636719 0.95527344 -0.38382813 0.48476562 0 0 Z " fill="#10A849" transform="translate(39,115)"/>
<path d="M0 0 C3.96 1.32 7.92 2.64 12 4 C12 4.33 12 4.66 12 5 C10.56344146 5.08131463 9.1255517 5.13933559 7.6875 5.1875 C6.48673828 5.23970703 6.48673828 5.23970703 5.26171875 5.29296875 C3 5 3 5 1.20703125 3.61328125 C0 2 0 2 0 0 Z " fill="#B8E4F0" transform="translate(143,111)"/>
<path d="M0 0 C1.08667969 0.29197266 1.08667969 0.29197266 2.1953125 0.58984375 C2.74960938 0.74582031 3.30390625 0.90179688 3.875 1.0625 C3.875 1.3925 3.875 1.7225 3.875 2.0625 C0.575 2.0625 -2.725 2.0625 -6.125 2.0625 C-6.125 1.4025 -6.125 0.7425 -6.125 0.0625 C-3.57797384 -1.21101308 -2.6967055 -0.73941925 0 0 Z " fill="#1CA9CB" transform="translate(130.125,224.9375)"/>
<path d="M0 0 C0 1.32 0 2.64 0 4 C-2.31 4 -4.62 4 -7 4 C-3.375 0 -3.375 0 0 0 Z " fill="#CCECD9" transform="translate(79,178)"/>
<path d="M0 0 C0 0.99 0 1.98 0 3 C-3.66666667 3 -7.33333333 3 -11 3 C-7.88866897 -0.11133103 -4.26881718 0 0 0 Z " fill="#1FABCC" transform="translate(150,117)"/>
<path d="M0 0 C2.49361571 1.20381448 4.68143083 2.45428722 7 4 C7 4.99 7 5.98 7 7 C3.17053157 5.54744301 1.87949705 3.57104439 0 0 Z " fill="#8FD6AA" transform="translate(92,115)"/>
<path d="M0 0 C0 4.38968456 -2.12805101 5.76905739 -5 9 C-5.66 8.67 -6.32 8.34 -7 8 C-5.61918777 3.8575633 -3.40174442 2.67796901 0 0 Z " fill="#00181D" transform="translate(196,107)"/>
<path d="M0 0 C1.04059132 3.12177395 1.32284898 4.07083439 0 7 C-2.5625 8.25 -2.5625 8.25 -5 9 C-3.35 6.03 -1.7 3.06 0 0 Z " fill="#4CB957" transform="translate(88,94)"/>
<path d="M0 0 C0.33 0.99 0.66 1.98 1 3 C-0.40445835 5.2636564 -2.1967913 7.0208685 -4 9 C-4.33 8.01 -4.66 7.02 -5 6 C-3.59554165 3.7363436 -1.8032087 1.9791315 0 0 Z " fill="#08A2B7" transform="translate(103,137)"/>
<path d="M0 0 C5.53846154 -0.36923077 5.53846154 -0.36923077 7.875 1.5 C8.24625 1.995 8.6175 2.49 9 3 C2.84765625 2.4140625 2.84765625 2.4140625 1 2 C0.67 1.34 0.34 0.68 0 0 Z " fill="#C0E8D0" transform="translate(59,119)"/>
<path d="M0 0 C0.99 0 1.98 0 3 0 C3 0.66 3 1.32 3 2 C1.46875 3.2890625 1.46875 3.2890625 -0.5 4.625 C-1.1496875 5.07101563 -1.799375 5.51703125 -2.46875 5.9765625 C-2.9740625 6.31429687 -3.479375 6.65203125 -4 7 C-3.67 5.68 -3.34 4.36 -3 3 C-2.34 3 -1.68 3 -1 3 C-0.67 2.01 -0.34 1.02 0 0 Z " fill="#0D8F26" transform="translate(43,57)"/>
</svg>
